/* XPM */
static char * 1_xpm[] = {
"32 32 372 2",
"  	c #FFFFFF",
". 	c #F4F5F5",
"+ 	c #E3E5E4",
"@ 	c #DBDFDC",
"# 	c #D8D9D8",
"$ 	c #D9DADA",
"% 	c #E1E2E1",
"& 	c #E2E3E3",
"* 	c #E1E3E2",
"= 	c #E4E5E5",
"- 	c #E3E4E3",
"; 	c #DDDEDE",
"> 	c #E2E3E2",
", 	c #E5E6E6",
"' 	c #EDEEEE",
") 	c #F7F8F7",
"! 	c #FEFFFE",
"~ 	c #FDFDFD",
"{ 	c #F5F5F5",
"] 	c #F8F9F8",
"^ 	c #C9CACA",
"/ 	c #919393",
"( 	c #737775",
"_ 	c #6D716E",
": 	c #656A67",
"< 	c #636763",
"[ 	c #616561",
"} 	c #646864",
"| 	c #5F625F",
"1 	c #656865",
"2 	c #606360",
"3 	c #6A6C6A",
"4 	c #797B79",
"5 	c #9B9D9B",
"6 	c #BFBFBF",
"7 	c #DFDFDF",
"8 	c #F6F8F7",
"9 	c #F0F1F0",
"0 	c #D6D7D6",
"a 	c #F2F3F3",
"b 	c #ACADAD",
"c 	c #494A49",
"d 	c #0D100D",
"e 	c #040605",
"f 	c #020503",
"g 	c #020302",
"h 	c #010201",
"i 	c #010302",
"j 	c #000101",
"k 	c #1B1C1A",
"l 	c #666766",
"m 	c #A1A1A0",
"n 	c #CCCCCC",
"o 	c #F1F2F2",
"p 	c #E6E7E6",
"q 	c #C1C1C1",
"r 	c #A0A1A1",
"s 	c #343534",
"t 	c #010103",
"u 	c #000000",
"v 	c #0F0F0E",
"w 	c #575857",
"x 	c #989998",
"y 	c #C8C8C9",
"z 	c #EEEFEF",
"A 	c #B9BABA",
"B 	c #F1F2F1",
"C 	c #A7A8A8",
"D 	c #3F403F",
"E 	c #070908",
"F 	c #010101",
"G 	c #000100",
"H 	c #111110",
"I 	c #5A5A5A",
"J 	c #9B9B9B",
"K 	c #C8C9C9",
"L 	c #EFF0EF",
"M 	c #FDFDFC",
"N 	c #BBBBBB",
"O 	c #F3F4F4",
"P 	c #B4B5B5",
"Q 	c #5C5C5B",
"R 	c #2C2C2C",
"S 	c #242424",
"T 	c #212222",
"U 	c #1B1D1D",
"V 	c #161717",
"W 	c #0F1111",
"X 	c #040505",
"Y 	c #10100F",
"Z 	c #5C5D5C",
"` 	c #C9C9CA",
" .	c #E7E8E7",
"..	c #C2C2C2",
"+.	c #F8F8F8",
"@.	c #C2C3C2",
"#.	c #828282",
"$.	c #5E5E5D",
"%.	c #565656",
"&.	c #535353",
"*.	c #4E4E4E",
"=.	c #424242",
"-.	c #313232",
";.	c #151616",
">.	c #5B5C5B",
",.	c #9C9D9C",
"'.	c #C8C7C8",
").	c #EEEFEE",
"!.	c #FEFEFE",
"~.	c #D0D0CF",
"{.	c #FCFCFC",
"].	c #D5D6D5",
"^.	c #AAAAAA",
"/.	c #969696",
"(.	c #908F90",
"_.	c #8B8B8C",
":.	c #838384",
"<.	c #6E6F6D",
"[.	c #4F5050",
"}.	c #282929",
"|.	c #0F100E",
"1.	c #5B5C5C",
"2.	c #9C9C9C",
"3.	c #F6F6F6",
"4.	c #E3E3E3",
"5.	c #F1F1F1",
"6.	c #DBDCDB",
"7.	c #D5D5D5",
"8.	c #D1D2D2",
"9.	c #CBCCCB",
"0.	c #BCBCBC",
"a.	c #9E9E9E",
"b.	c #757676",
"c.	c #3F4040",
"d.	c #060706",
"e.	c #9C9D9D",
"f.	c #F0F0F0",
"g.	c #FCFDFD",
"h.	c #F3F4F3",
"i.	c #FEFFFF",
"j.	c #FAFAFB",
"k.	c #C1C1C2",
"l.	c #919191",
"m.	c #4E5050",
"n.	c #090A0A",
"o.	c #C9C9C9",
"p.	c #F9FAFA",
"q.	c #EBECEB",
"r.	c #C7C8C8",
"s.	c #959595",
"t.	c #515352",
"u.	c #0A0B0B",
"v.	c #9D9E9D",
"w.	c #C7C7C8",
"x.	c #EDEEED",
"y.	c #CACACB",
"z.	c #939393",
"A.	c #D8D8D8",
"B.	c #EBEBEB",
"C.	c #CBCBCC",
"D.	c #939494",
"E.	c #525353",
"F.	c #FFFFFD",
"G.	c #CBCBCB",
"H.	c #939594",
"I.	c #0A0B0A",
"J.	c #9D9D9D",
"K.	c #C0C0C1",
"L.	c #FBFCFC",
"M.	c #929393",
"N.	c #525453",
"O.	c #141312",
"P.	c #5A5B5A",
"Q.	c #9D9E9E",
"R.	c #C7C7C7",
"S.	c #EFF0F0",
"T.	c #E4E4E4",
"U.	c #515353",
"V.	c #121211",
"W.	c #5B5B5B",
"X.	c #FDFFFF",
"Y.	c #E5E5E5",
"Z.	c #B8B9B9",
"`.	c #EAEBEB",
" +	c #131312",
".+	c #5B5B5A",
"++	c #FDFEFE",
"@+	c #BABABA",
"#+	c #EBECEC",
"$+	c #515252",
"%+	c #0B0C0B",
"&+	c #151514",
"*+	c #FFFFFE",
"=+	c #C6C6C6",
"-+	c #E6E7E7",
";+	c #BABABB",
">+	c #E9EAEA",
",+	c #141413",
"'+	c #9A9B9B",
")+	c #C5C6C7",
"!+	c #ECEDEC",
"~+	c #E7E7E7",
"{+	c #F6F7F7",
"]+	c #8F9290",
"^+	c #505151",
"/+	c #585958",
"(+	c #C3C3C3",
"_+	c #BDBDBD",
":+	c #DADBDA",
"<+	c #D4D5D4",
"[+	c #D4D6D4",
"}+	c #D2D3D2",
"|+	c #BDBEBE",
"1+	c #A3A4A3",
"2+	c #797A79",
"3+	c #414242",
"4+	c #060807",
"5+	c #111211",
"6+	c #4D4E4D",
"7+	c #7F807F",
"8+	c #A6A7A6",
"9+	c #C1C3C1",
"0+	c #CFD1D0",
"a+	c #D2D4D3",
"b+	c #D4D5D3",
"c+	c #D7D9D7",
"d+	c #F7F9F8",
"e+	c #BEBEBE",
"f+	c #BEBFBF",
"g+	c #A8A9A8",
"h+	c #9B9C9B",
"i+	c #909090",
"j+	c #8C8C8C",
"k+	c #8C8C8B",
"l+	c #8C8D8C",
"m+	c #898A8A",
"n+	c #838483",
"o+	c #6F7170",
"p+	c #2A2B2B",
"q+	c #000002",
"r+	c #383838",
"s+	c #6F706F",
"t+	c #818281",
"u+	c #8E8F8E",
"v+	c #8F908F",
"w+	c #979797",
"x+	c #AAABAA",
"y+	c #EFF1F0",
"z+	c #C0C0C0",
"A+	c #D4D5D5",
"B+	c #7D7E7D",
"C+	c #696A69",
"D+	c #575757",
"E+	c #585959",
"F+	c #595959",
"G+	c #555656",
"H+	c #4F504F",
"I+	c #424342",
"J+	c #353736",
"K+	c #151716",
"L+	c #030404",
"M+	c #262727",
"N+	c #363736",
"O+	c #424343",
"P+	c #4E4F4F",
"Q+	c #575858",
"R+	c #595A59",
"S+	c #5A5B5B",
"T+	c #656666",
"U+	c #BABAB9",
"V+	c #E7E8E8",
"W+	c #C1C2C2",
"X+	c #868686",
"Y+	c #3A3B3A",
"Z+	c #232424",
"`+	c #232525",
" @	c #242525",
".@	c #242625",
"+@	c #212322",
"@@	c #1B1D1C",
"#@	c #161716",
"$@	c #050606",
"%@	c #121312",
"&@	c #1A1C1A",
"*@	c #202220",
"=@	c #222423",
"-@	c #232524",
";@	c #272827",
">@	c #A7A7A7",
",@	c #E4E5E4",
"'@	c #E8E9E8",
")@	c #C2C3C3",
"!@	c #C0C1C1",
"~@	c #767777",
"{@	c #454645",
"]@	c #191A1A",
"^@	c #030403",
"/@	c #020202",
"(@	c #3E3F3F",
"_@	c #979897",
":@	c #E0E0E0",
"<@	c #E8E9E9",
"[@	c #6E6E6E",
"}@	c #3B3B3A",
"|@	c #111212",
"1@	c #0A0A0A",
"2@	c #373736",
"3@	c #959495",
"4@	c #E1E1E1",
"5@	c #E9EAE9",
"6@	c #C1C3C2",
"7@	c #777878",
"8@	c #4A4A49",
"9@	c #272727",
"0@	c #101010",
"a@	c #080807",
"b@	c #060606",
"c@	c #040404",
"d@	c #040403",
"e@	c #030303",
"f@	c #030302",
"g@	c #050505",
"h@	c #050605",
"i@	c #070706",
"j@	c #0B0B0A",
"k@	c #191817",
"l@	c #3D3C3C",
"m@	c #9F9F9F",
"n@	c #C5C5C5",
"o@	c #8A8989",
"p@	c #777676",
"q@	c #6C6B6A",
"r@	c #676665",
"s@	c #656464",
"t@	c #676867",
"u@	c #646665",
"v@	c #646564",
"w@	c #656766",
"x@	c #656665",
"y@	c #666867",
"z@	c #636564",
"A@	c #636464",
"B@	c #656566",
"C@	c #666767",
"D@	c #676767",
"E@	c #6B6A6A",
"F@	c #747373",
"G@	c #8A8A89",
"H@	c #BFBFC0",
"I@	c #FAFAFA",
"J@	c #F7F7F7",
"K@	c #EFEEEE",
"L@	c #E6E5E5",
"M@	c #E9E8E8",
"N@	c #E7E6E7",
"O@	c #EBEAEB",
"P@	c #EEECED",
"Q@	c #EEEDED",
"R@	c #F0EFEF",
"S@	c #F0EFF0",
"T@	c #F1F0F0",
"U@	c #F1EFF0",
"V@	c #F1F0F1",
"W@	c #EFEDEE",
"X@	c #F0EEEF",
"Y@	c #ECEBEB",
"Z@	c #EBEAEA",
"`@	c #E6E6E6",
" #	c #E8E7E8",
".#	c #ECECEC",
"+#	c #FCFDFC",
"@#	c #F9F9F9",
"                                                                ",
"          . + @ # $ % & * = - * ; > , ' ) !                 ~ { ",
"        ] ^ / ( _ : < [ } | 1 2 3 4 5 6 7 8                 9 0 ",
"        a b c d e f g h i j j j g k l m n o               ~ p q ",
"        9 r s t u u u u u u u u u v w x y z               ~ - A ",
"        B C D E h F G u u u u u u H I J K L               M - N ",
"        O P Q R S T U V W X u u u Y Z J ` L               ~  ...",
"        +.@.#.$.%.&.*.=.-.;.j u u Y >.,.'.).              !.).~.",
"        {.].^./.(._.:.<.[.}.i u u |.1.2.y ).                3.4.",
"          5.6.7.8.9.0.a.b.c.d.u u Y Z e.y f.                g.h.",
"                i.j.= k.l.m.n.u u Y >.,.o.L                 i.p.",
"                  ~ q.r.s.t.u.u u H >.v.w.L                 p.x.",
"                  g.q.y.z.t.u.u u H >.e.w.L                 B A.",
"                  {.B.C.D.E.u.u u H >.v.w.f.        F.      q.G.",
"                  {.q.n H.E.I.u u H >.J.o.9               !.p K.",
"                  L.B.C.M.N.n.u u O.P.Q.R.S.              !.T.A ",
"                  {.B.C.z.U.n.u u V.W.,.w.L     X.        !.Y.Z.",
"                  L.`.C.z.E.I.u u  +.+J.R.L               ++p @+",
"                  L.#+y.D.$+%+u u &+W.J.y 9               !. .@+",
"            *+    L.B.` D.E.%+u u &+P.e.=+L               ~ -+;+",
"                  L.>+w.M.$+u.u u ,+>.'+)+!+              ++~+N ",
"              i.++{+> q ]+^+u.u u ,+/+/.(+ .~             g.~+_+",
"{+p :+0 ].<+[+].}+9.|+1+2+3+4+u u 5+6+7+8+9+0+a+b+b+c+- B d+-+e+",
"& f+g+h+i+j+k+j+l+m+n+o+&.p+g u q+u.r+%.s+t+m+l+u+v+w+x+8.y+, z+",
"A+a.B+C+P.D+w E+F+G+H+I+J+K+G u u L+M+N+O+P+Q+R+R+S+T+#.U+`.V+W+",
"K X+.+Y+M+Z+`+ @.@`++@@@#@$@u u u G E %@&@*@Z+=@-@;@s P.>@,@'@)@",
"!@~@{@]@^@F j G j G G u u u u q+u u u u u u j j /@d.&+(@_@:@<@W+",
"f+[@}@|@F u u u u u u u u u u u u u u u u u u u u G 1@2@3@4@5@..",
"6@7@8@9@0@a@b@c@c@c@c@d@e@f@g g g g f@e@e@d@g@h@i@j@k@l@m@,@q.n@",
"0 g+o@p@q@r@s@t@T+u@v@w@x@x@x@y@v@z@A@x@v@A@B@C@D@E@F@G@H@x.9 A.",
"I@J@K@~+L@M@N@O@P@Q@R@K@R@K@S@K@T@U@V@W@X@W@Y@Z@O@`@ #.#J@+#{.@#",
"                                                                "};
