/* XPM */
static char * 2_xpm[] = {
"32 32 460 2",
"  	c #FFFFFF",
". 	c #EBECEC",
"+ 	c #E2E3E2",
"@ 	c #E2E4E3",
"# 	c #E0E1E0",
"$ 	c #ECEEEF",
"% 	c #EDEFF0",
"& 	c #EFF0F1",
"* 	c #EFF0F2",
"= 	c #EEEFF1",
"- 	c #F0F0F0",
"; 	c #F2F3F4",
"> 	c #F1F2F4",
", 	c #F3F3F5",
"' 	c #F4F4F6",
") 	c #EFEFF1",
"! 	c #E3E4E4",
"~ 	c #E5E7E6",
"{ 	c #E7E7E7",
"] 	c #F3F3F3",
"^ 	c #FBFBFB",
"/ 	c #B9B9B9",
"( 	c #949595",
"_ 	c #717371",
": 	c #5F6461",
"< 	c #5E635F",
"[ 	c #565E59",
"} 	c #575E59",
"| 	c #555C57",
"1 	c #5C625C",
"2 	c #565D58",
"3 	c #5B615D",
"4 	c #575D58",
"5 	c #5D625D",
"6 	c #555C56",
"7 	c #5A5F59",
"8 	c #595E58",
"9 	c #5B615B",
"0 	c #575C56",
"a 	c #585E57",
"b 	c #5F635C",
"c 	c #5D615B",
"d 	c #60645E",
"e 	c #595D57",
"f 	c #5E625C",
"g 	c #6D6F6B",
"h 	c #A4A4A3",
"i 	c #D2D2D2",
"j 	c #EBEBEB",
"k 	c #F5F6F6",
"l 	c #FBFCFC",
"m 	c #F7F8F7",
"n 	c #919191",
"o 	c #555555",
"p 	c #0D100D",
"q 	c #000100",
"r 	c #000000",
"s 	c #020000",
"t 	c #010000",
"u 	c #0C0F0C",
"v 	c #6A6B6A",
"w 	c #E3E3E4",
"x 	c #F1F1F1",
"y 	c #F6F7F6",
"z 	c #F0F0EF",
"A 	c #868686",
"B 	c #474847",
"C 	c #030503",
"D 	c #050604",
"E 	c #5A5B5B",
"F 	c #AFAFAE",
"G 	c #DFDFDF",
"H 	c #EFEFEF",
"I 	c #F4F5F5",
"J 	c #EDEDED",
"K 	c #8C8C8C",
"L 	c #515151",
"M 	c #0A0C0A",
"N 	c #010100",
"O 	c #060706",
"P 	c #5B5C5B",
"Q 	c #ACACAC",
"R 	c #DEDEDF",
"S 	c #F5F5F5",
"T 	c #EEEEEE",
"U 	c #979797",
"V 	c #676767",
"W 	c #323332",
"X 	c #1F2020",
"Y 	c #202021",
"Z 	c #212323",
"` 	c #232424",
" .	c #222424",
"..	c #222323",
"+.	c #1E1F1F",
"@.	c #171818",
"#.	c #0D1010",
"$.	c #070A09",
"%.	c #010101",
"&.	c #050605",
"*.	c #5C5D5C",
"=.	c #AAAAAA",
"-.	c #F6F6F6",
";.	c #848484",
">.	c #636262",
",.	c #545454",
"'.	c #525252",
").	c #515150",
"!.	c #505050",
"~.	c #535352",
"{.	c #555554",
"].	c #535353",
"^.	c #4D4D4D",
"/.	c #3D3D3D",
"(.	c #272827",
"_.	c #050806",
":.	c #060705",
"<.	c #5B5B5B",
"[.	c #ABABAB",
"}.	c #DEDEDE",
"|.	c #F4F4F4",
"1.	c #CACBCA",
"2.	c #AEAEAE",
"3.	c #989798",
"4.	c #8F8F8F",
"5.	c #8D8D8D",
"6.	c #8B8B8C",
"7.	c #8C8C8D",
"8.	c #8D8D8E",
"9.	c #8D8C8D",
"0.	c #8E8E8F",
"a.	c #807F80",
"b.	c #636363",
"c.	c #414242",
"d.	c #262827",
"e.	c #080B0A",
"f.	c #F8F8F8",
"g.	c #E9E9E9",
"h.	c #D5D5D5",
"i.	c #CFD0D0",
"j.	c #CFCFCF",
"k.	c #CECFCF",
"l.	c #D0D0D0",
"m.	c #D0D1D1",
"n.	c #D1D1D1",
"o.	c #D1D2D2",
"p.	c #D1D1D2",
"q.	c #BCBDBD",
"r.	c #939393",
"s.	c #666767",
"t.	c #3D3E3E",
"u.	c #0E100F",
"v.	c #050505",
"w.	c #5C5C5C",
"x.	c #F9F9F9",
"y.	c #FDFDFD",
"z.	c #F3F4F4",
"A.	c #ECEDED",
"B.	c #E8E9E9",
"C.	c #E5E6E6",
"D.	c #E6E8E8",
"E.	c #E6E8E7",
"F.	c #E5E7E7",
"G.	c #E7E8E8",
"H.	c #E8E9E8",
"I.	c #E6E7E7",
"J.	c #E7E8E7",
"K.	c #E6E7E6",
"L.	c #E1E2E1",
"M.	c #CECFCE",
"N.	c #A4A4A4",
"O.	c #737474",
"P.	c #424443",
"Q.	c #0F1210",
"R.	c #050504",
"S.	c #5D5D5C",
"T.	c #DFE0DF",
"U.	c #FAFBFB",
"V.	c #DEDFDE",
"W.	c #CCCDCD",
"X.	c #BEBFBE",
"Y.	c #B6B7B7",
"Z.	c #B4B5B4",
"`.	c #B4B6B5",
" +	c #B4B5B5",
".+	c #B6B7B6",
"++	c #B5B6B6",
"@+	c #B6B8B7",
"#+	c #B8B9B8",
"$+	c #BABCBB",
"%+	c #B7B8B7",
"&+	c #A4A6A5",
"*+	c #838484",
"=+	c #5D5E5E",
"-+	c #363837",
";+	c #0C0E0D",
">+	c #060605",
",+	c #5C5C5B",
"'+	c #FAFBFA",
")+	c #C0C0C0",
"!+	c #9FA0A0",
"~+	c #818181",
"{+	c #727372",
"]+	c #737574",
"^+	c #757675",
"/+	c #747675",
"(+	c #767776",
"_+	c #757776",
":+	c #737473",
"<+	c #666766",
"[+	c #535453",
"}+	c #3E3F3E",
"|+	c #252626",
"1+	c #050706",
"2+	c #5D5E5D",
"3+	c #A8A9A8",
"4+	c #7A7B7B",
"5+	c #3C3D3D",
"6+	c #404040",
"7+	c #444545",
"8+	c #454545",
"9+	c #464646",
"0+	c #454645",
"a+	c #454445",
"b+	c #464645",
"c+	c #444544",
"d+	c #404140",
"e+	c #373938",
"f+	c #2D2F2E",
"g+	c #0E1110",
"h+	c #949494",
"i+	c #212221",
"j+	c #0B0C0B",
"k+	c #090B09",
"l+	c #090A09",
"m+	c #0C0D0C",
"n+	c #0B0D0C",
"o+	c #0C0E0C",
"p+	c #0D0F0E",
"q+	c #0D0F0D",
"r+	c #0F110F",
"s+	c #111311",
"t+	c #101210",
"u+	c #0B0E0C",
"v+	c #060806",
"w+	c #5E5F5E",
"x+	c #ADAEAE",
"y+	c #8A8B8B",
"z+	c #505150",
"A+	c #0D0E0E",
"B+	c #5B5B5A",
"C+	c #B0AFAF",
"D+	c #FAFAFA",
"E+	c #505251",
"F+	c #0A0B0A",
"G+	c #070806",
"H+	c #585958",
"I+	c #8C8D8D",
"J+	c #515352",
"K+	c #0A0B0B",
"L+	c #060807",
"M+	c #131514",
"N+	c #1C1E1E",
"O+	c #1E2020",
"P+	c #1D1F1E",
"Q+	c #1C1E1C",
"R+	c #1D1F1D",
"S+	c #1B1D1C",
"T+	c #181918",
"U+	c #1B1C1B",
"V+	c #1D1E1C",
"W+	c #1E1F1D",
"X+	c #1C1D1C",
"Y+	c #1B1C1A",
"Z+	c #1A1B1B",
"`+	c #151615",
" @	c #141615",
".@	c #171917",
"+@	c #2A2B29",
"@@	c #6D6C6C",
"#@	c #BFBDBE",
"$@	c #E4E3E4",
"%@	c #FCFDFD",
"&@	c #8C8D8C",
"*@	c #353736",
"=@	c #646565",
"-@	c #828282",
";@	c #989898",
">@	c #9A9A9B",
",@	c #9F9F9F",
"'@	c #9D9D9E",
")@	c #9B9B9C",
"!@	c #9F9EA0",
"~@	c #98989A",
"{@	c #9C9C9D",
"]@	c #9E9E9F",
"^@	c #9B9C9D",
"/@	c #9E9EA0",
"(@	c #9B9A9B",
"_@	c #9D9C9D",
":@	c #A7A6A7",
"<@	c #C1C0C1",
"[@	c #E0E0E0",
"}@	c #F2F2F2",
"|@	c #070808",
"1@	c #101110",
"2@	c #565756",
"3@	c #999999",
"4@	c #C5C6C6",
"5@	c #E1E2E2",
"6@	c #EDEEED",
"7@	c #F6F7F7",
"8@	c #F7F8F8",
"9@	c #F9FAFA",
"0@	c #F9F9FA",
"a@	c #F8F9F9",
"b@	c #F8F8F9",
"c@	c #F3F4F3",
"d@	c #F4F5F4",
"e@	c #FEFEFE",
"f@	c #8B8C8C",
"g@	c #080908",
"h@	c #141514",
"i@	c #606161",
"j@	c #A8AAAA",
"k@	c #D8D9D9",
"l@	c #EFF1F0",
"m@	c #FDFFFF",
"n@	c #FEFFFF",
"o@	c #060707",
"p@	c #131413",
"q@	c #5B5C5C",
"r@	c #A0A1A1",
"s@	c #CBCBCB",
"t@	c #F5F7F6",
"u@	c #FDFEFE",
"v@	c #FCFDFC",
"w@	c #FCFCFC",
"x@	c #070807",
"y@	c #0F100E",
"z@	c #4B4C4B",
"A@	c #818282",
"B@	c #A5A6A6",
"C@	c #BDBEBD",
"D@	c #CBCCCC",
"E@	c #D1D2D1",
"F@	c #D3D5D3",
"G@	c #D3D4D3",
"H@	c #D4D6D4",
"I@	c #D5D6D5",
"J@	c #D6D7D5",
"K@	c #D4D5D3",
"L@	c #D6D8D5",
"M@	c #D4D5D2",
"N@	c #D3D4D2",
"O@	c #CFD1CF",
"P@	c #D1D2D0",
"Q@	c #CFD0CF",
"R@	c #F9FAF9",
"S@	c #FEFFFE",
"T@	c #8D8E8E",
"U@	c #080A09",
"V@	c #333434",
"W@	c #595959",
"X@	c #8B8B8B",
"Y@	c #8B898B",
"Z@	c #989998",
"`@	c #B5B5B6",
" #	c #D9D9D9",
".#	c #FBFCFB",
"+#	c #525353",
"@#	c #080909",
"##	c #020403",
"$#	c #1F2120",
"%#	c #353635",
"&#	c #515252",
"*#	c #585959",
"=#	c #5A5B5A",
"-#	c #5E5E5E",
";#	c #5F605F",
">#	c #696968",
",#	c #959494",
"'#	c #C8C8C8",
")#	c #E8E8E8",
"!#	c #F7F7F7",
"~#	c #F1F2F2",
"{#	c #525352",
"]#	c #121312",
"^#	c #1B1B1A",
"/#	c #222422",
"(#	c #222423",
"_#	c #222322",
":#	c #212322",
"<#	c #232423",
"[#	c #232524",
"}#	c #252625",
"|#	c #242625",
"1#	c #3B3B3A",
"2#	c #777777",
"3#	c #B9B9B8",
"4#	c #E2E2E2",
"5#	c #F5F5F6",
"6#	c #4F5050",
"7#	c #616161",
"8#	c #ADADAD",
"9#	c #888988",
"0#	c #4B4B4A",
"a#	c #0B0D0B",
"b#	c #5A5A59",
"c#	c #ADACAC",
"d#	c #DDDDDE",
"e#	c #0B0D0A",
"f#	c #010201",
"g#	c #020302",
"h#	c #030403",
"i#	c #040503",
"j#	c #030604",
"k#	c #B9B8B8",
"l#	c #E1E1E1",
"m#	c #B6B6B6",
"n#	c #949393",
"o#	c #71716F",
"p#	c #686867",
"q#	c #666665",
"r#	c #686A68",
"s#	c #656765",
"t#	c #676967",
"u#	c #656665",
"v#	c #656664",
"w#	c #646563",
"x#	c #676765",
"y#	c #656564",
"z#	c #646463",
"A#	c #626362",
"B#	c #646564",
"C#	c #676866",
"D#	c #656666",
"E#	c #666666",
"F#	c #727170",
"G#	c #A09F9F",
"H#	c #D3D3D3",
"I#	c #EFEEEE",
"J#	c #E7E6E4",
"K#	c #E5E4E5",
"L#	c #E4E2E3",
"M#	c #E7E6E7",
"N#	c #EAE8E9",
"O#	c #EAE9EA",
"P#	c #EDEBEC",
"Q#	c #ECEBEC",
"R#	c #EDECED",
"S#	c #EEEDEE",
"T#	c #EFEEEF",
"U#	c #EDECEC",
"V#	c #ECEAEB",
"W#	c #EBEAEB",
"X#	c #E2E1E1",
"Y#	c #E5E5E5",
"Z#	c #EAEAEA",
"`#	c #FDFEFD",
"                                                                ",
". + @ # # $ % $ % & & * = - ; > > , ' ; * ) & ! + ~ { ] ^       ",
"/ ( _ : < [ } | 1 2 3 4 5 6 7 8 9 0 7 a b c d e f g h i j k l m ",
"n o p q r r r r s r t r r r r r r r r r r r r r r u v / w x y z ",
"A B C r r r r r r r r r r r r r q r r r r r r r r D E F G H I J ",
"K L M N r r r r r r r r r r r r r r r r r r r r r O P Q R H S T ",
"U V W X Y Z Z Z ` ` `  .` ` ` ` ` ..+.@.#.$.%.r r &.*.=.G H -.x ",
"Q ;.>.,.L '.'.).L L L !.L L '.~.{.].^./.(.@._.r r :.<.[.}.H -.|.",
"1.2.3.4.5.6.7.7.8.7.9.7.7.6.7.7.0.6.a.b.c.d.e.r r &.*.=.}.H f.f.",
"g.}.h.i.j.i.i.k.l.m.l.m.n.o.p.o.o.j.q.r.s.t.u.r r v.w.[.}.- x.y.",
"z.A.B.C.C.D.E.F.B.G.H.I.J.C.K.C.K.L.M.N.O.P.Q.r r R.S.[.T.- U.  ",
"V.W.X.Y.Z.`. +`..+Y.++++Y.@+Y.#+$+%+&+*+=+-+;+r r >+,+Q G - '+  ",
")+!+~+{+{+]+^+/+(+^+^+^+(+/+(+_+_+:+<+[+}+|+1+r r R.2+Q }.H U.  ",
"3+4+!.5+6+7+8+7+9+0+0+a+b+8+7+7+c+d+e+f+ .g+%.r r >+*.Q }.H '+  ",
"h+w.i+j+M k+k+l+m+n+o+o+p+q+r+r+s+t+r+u+v+%.r r r v.w+x+G H U.  ",
"y+z+A+r r r r r r r r r r r r r r r r r r r r r r :.B+C+}.- D+  ",
"y+E+F+r r r r r r r r r r r r r r r r r r r r r r G+H+C+G - U.  ",
"I+J+K+r r q L+M+N+O+P+Q+R+S+T+U+V+W+T+X+Y+Z+`+ @.@+@@@#@$@] %@  ",
"&@[+l+r r L+*@=@-@4.;@>@,@'@'@)@!@~@{@>@]@^@/@(@_@:@<@[@}@U.    ",
"K [+|@r r 1@2@3@4@5@6@k 7@8@9@0@a@0@U.9@b@7@8@] c@d@-.'+e@      ",
"f@].g@r r h@i@j@k@l@m@                            n@            ",
"I+[+o@r r p@q@r@s@C.t@u@                      y.v@%@w@e@        ",
"5.,.x@r r y@z@A@B@C@D@E@F@G@H@I@J@K@L@M@N@O@P@Q@P@I@# H R@S@  u@",
"T@[+|@r r U@V@W@O.*+y+5.5.&@X@X@X@X@X@Y@K K &@5.4.Z@`@ #- x..#m ",
"T@+#@#r r ##$#%#0+&#*#=#,+<.S.S.S.,+S.S.-#2+;#,+B+>#,#'#)#S !#~#",
"T@{#|@r r q O ]#^#P+/#(#(#(#_#:#<#(#` (#[#[#}#(#|#1#2#3#4#}@5#H ",
"I+6#O r r r r r r r r r r r r r r r r r r r q r %..@7#8#}.- |.J ",
"9#0#x@r r r r r r r r r r r r r r r r r r r r r r a#b#c#d#- |.J ",
"4.~.e#%.q %.f#f#g#g#h#h#h#h#i#h#h#h#h#h#h###h###j#.@>#k#l#x S H ",
"m#n#o#p#q#r#s#t#u#v#w#x#y#w#z#v#A#w#B#C#=@D#<+<+E#F#G#H#j -.x.S ",
"|.I#J#K#L#M#N#O#P#Q#R#Q#S#R#T R#T#J T#U#U#V#W#X#l#Y#Z#5#^ `#n@e@",
"                                                                "};
