/* XPM */
static char * 4_xpm[] = {
"32 32 358 2",
"  	c #FFFFFF",
". 	c #F7F8F8",
"+ 	c #EBECEC",
"@ 	c #DEE0DF",
"# 	c #D8DAD9",
"$ 	c #D9DAD9",
"% 	c #DEE0DE",
"& 	c #E5E7E6",
"* 	c #F0F1F1",
"= 	c #FDFDFD",
"- 	c #E6E9E8",
"; 	c #DDDFDE",
"> 	c #D9DBDA",
", 	c #D5D8D7",
"' 	c #E5E6E6",
") 	c #F1F1F1",
"! 	c #FBFCFC",
"~ 	c #BBBCBC",
"{ 	c #8C8F8D",
"] 	c #777977",
"^ 	c #6E706E",
"/ 	c #767775",
"( 	c #7E7F7D",
"_ 	c #8D8F8D",
": 	c #A6A7A6",
"< 	c #DBDCDC",
"[ 	c #FAFAFB",
"} 	c #C5C7C6",
"| 	c #8A8D8A",
"1 	c #6F716D",
"2 	c #696A67",
"3 	c #737471",
"4 	c #7B7C7A",
"5 	c #939493",
"6 	c #B2B3B2",
"7 	c #FDFEFE",
"8 	c #919393",
"9 	c #4E4F4E",
"0 	c #1D1F1C",
"a 	c #141614",
"b 	c #1D1D1C",
"c 	c #2E2E2D",
"d 	c #50504F",
"e 	c #818280",
"f 	c #C4C5C5",
"g 	c #F6F6F7",
"h 	c #979897",
"i 	c #3F403E",
"j 	c #080B0A",
"k 	c #040906",
"l 	c #181918",
"m 	c #333433",
"n 	c #5A5A5B",
"o 	c #8C8C8B",
"p 	c #C2C2C2",
"q 	c #888989",
"r 	c #3D3E3D",
"s 	c #0C0E0C",
"t 	c #090B08",
"u 	c #111210",
"v 	c #222322",
"w 	c #404140",
"x 	c #787978",
"y 	c #FCFDFD",
"z 	c #F4F5F6",
"A 	c #939492",
"B 	c #303232",
"C 	c #000000",
"D 	c #101110",
"E 	c #2A2A2A",
"F 	c #4B4B4A",
"G 	c #808180",
"H 	c #BEBFBE",
"I 	c #F3F4F4",
"J 	c #868788",
"K 	c #3D3F3E",
"L 	c #0A0D0B",
"M 	c #090B09",
"N 	c #121312",
"O 	c #222221",
"P 	c #3E3E3D",
"Q 	c #777876",
"R 	c #C0C0C0",
"S 	c #F3F3F5",
"T 	c #959695",
"U 	c #313433",
"V 	c #000101",
"W 	c #131413",
"X 	c #2C2C2B",
"Y 	c #494948",
"Z 	c #7E7F7E",
"` 	c #BDBDBD",
" .	c #F2F4F3",
"..	c #838485",
"+.	c #060B07",
"@.	c #050806",
"#.	c #111110",
"$.	c #212221",
"%.	c #3C3C3B",
"&.	c #757575",
"*.	c #BFC0C0",
"=.	c #F4F5F7",
"-.	c #959694",
";.	c #323432",
">.	c #131312",
",.	c #484747",
"'.	c #7C7C7C",
").	c #F5F6F5",
"!.	c #818283",
"~.	c #3C3E3E",
"{.	c #050906",
"].	c #20201F",
"^.	c #3A3A39",
"/.	c #747574",
"(.	c #BDBEBE",
"_.	c #FCFEFD",
":.	c #F5F5F6",
"<.	c #303231",
"[.	c #2A2A29",
"}.	c #454545",
"|.	c #7B7C7B",
"1.	c #BBBBBB",
"2.	c #F4F6F5",
"3.	c #3B3D3C",
"4.	c #040806",
"5.	c #040705",
"6.	c #0F100F",
"7.	c #393939",
"8.	c #727373",
"9.	c #FBFDFD",
"0.	c #2E2F2F",
"a.	c #121212",
"b.	c #454544",
"c.	c #7A7A7A",
"d.	c #BCBCBC",
"e.	c #F5F6F6",
"f.	c #818383",
"g.	c #3B3C3C",
"h.	c #020504",
"i.	c #1F1F1E",
"j.	c #383838",
"k.	c #747473",
"l.	c #C1C2C2",
"m.	c #F8FAF9",
"n.	c #FEFFFF",
"o.	c #F4F4F6",
"p.	c #949695",
"q.	c #2B2D2C",
"r.	c #292929",
"s.	c #444444",
"t.	c #7A7B7A",
"u.	c #F6F7F7",
"v.	c #3A3C3C",
"w.	c #030605",
"x.	c #010402",
"y.	c #0D0E0E",
"z.	c #343434",
"A.	c #686868",
"B.	c #B4B5B5",
"C.	c #E5E6E5",
"D.	c #EDEDEC",
"E.	c #EDEEED",
"F.	c #ECEDED",
"G.	c #EEEFEF",
"H.	c #EDEEEE",
"I.	c #EDEFF1",
"J.	c #2A2B2B",
"K.	c #000001",
"L.	c #111211",
"M.	c #7B7B7B",
"N.	c #BCBDBD",
"O.	c #F6F8F7",
"P.	c #828484",
"Q.	c #030604",
"R.	c #010301",
"S.	c #090B0A",
"T.	c #171716",
"U.	c #888988",
"V.	c #ADAEAD",
"W.	c #B2B4B3",
"X.	c #B3B4B3",
"Y.	c #B3B3B3",
"Z.	c #B3B4B4",
"`.	c #C5C5C6",
" +	c #E2E3E3",
".+	c #919391",
"++	c #232525",
"@+	c #282928",
"#+	c #848586",
"$+	c #3A3C3B",
"%+	c #000100",
"&+	c #010303",
"*+	c #0B0D0C",
"=+	c #1B1C1B",
"-+	c #343534",
";+	c #565756",
">+	c #6E6F6E",
",+	c #757675",
"'+	c #767676",
")+	c #767776",
"!+	c #767675",
"~+	c #737473",
"{+	c #929392",
"]+	c #C3C4C4",
"^+	c #D3D5D5",
"/+	c #8B8E8D",
"(+	c #1C1D1D",
"_+	c #131110",
":+	c #797A79",
"<+	c #F8F9F9",
"[+	c #868787",
"}+	c #3B3D3D",
"|+	c #020403",
"1+	c #0E100F",
"2+	c #202020",
"3+	c #353534",
"4+	c #424342",
"5+	c #454645",
"6+	c #464746",
"7+	c #414241",
"8+	c #6A6B6A",
"9+	c #AEAFAF",
"0+	c #C6C8C8",
"a+	c #898B8A",
"b+	c #181919",
"c+	c #444443",
"d+	c #888A89",
"e+	c #0B0D0B",
"f+	c #141514",
"g+	c #171816",
"h+	c #161715",
"i+	c #161816",
"j+	c #141613",
"k+	c #1A1B1A",
"l+	c #9B9D9C",
"m+	c #BABDBD",
"n+	c #878988",
"o+	c #161818",
"p+	c #101010",
"q+	c #282828",
"r+	c #BEBEBE",
"s+	c #3E3F3E",
"t+	c #2D2D2E",
"u+	c #959795",
"v+	c #B5B8B8",
"w+	c #868887",
"x+	c #151717",
"y+	c #F9FAFA",
"z+	c #8A8B8B",
"A+	c #010302",
"B+	c #222121",
"C+	c #9A9C9A",
"D+	c #B7BAB9",
"E+	c #888A88",
"F+	c #131516",
"G+	c #292928",
"H+	c #444544",
"I+	c #BDBEBD",
"J+	c #525250",
"K+	c #282926",
"L+	c #1B1E1C",
"M+	c #131514",
"N+	c #161716",
"O+	c #151916",
"P+	c #171A17",
"Q+	c #131614",
"R+	c #121613",
"S+	c #111512",
"T+	c #101411",
"U+	c #101412",
"V+	c #171918",
"W+	c #464646",
"X+	c #A8AAA9",
"Y+	c #C1C4C3",
"Z+	c #898A89",
"`+	c #010000",
" @	c #BCBDBC",
".@	c #D7D6D6",
"+@	c #B2B1B2",
"@@	c #A1A1A2",
"#@	c #9D9C9E",
"$@	c #A4A4A4",
"%@	c #A0A0A1",
"&@	c #9D9C9D",
"*@	c #9C9D9F",
"=@	c #9D9EA0",
"-@	c #9F9FA1",
";@	c #9E9FA1",
">@	c #A1A2A3",
",@	c #9B9B9C",
"'@	c #959596",
")@	c #ACAFB1",
"!@	c #DCDEDF",
"~@	c #E6E8E9",
"{@	c #8A8C8B",
"]@	c #212322",
"^@	c #BFBFBF",
"/@	c #FEFFFE",
"(@	c #FFFFFD",
"_@	c #F9FAFB",
":@	c #909190",
"<@	c #292B2A",
"[@	c #111111",
"}@	c #FCFCFC",
"|@	c #FAFBFC",
"1@	c #FBFDFC",
"2@	c #FBFBFC",
"3@	c #949593",
"4@	c #2C2D2C",
"5@	c #121211",
"6@	c #F9FBFD",
"7@	c #959593",
"8@	c #2D2F2F",
"9@	c #FBFCFB",
"0@	c #FCFCFD",
"a@	c #949493",
"b@	c #454443",
"c@	c #FAFBFA",
"d@	c #7B7B7A",
"e@	c #969695",
"f@	c #2C2F2E",
"g@	c #464645",
"h@	c #7D7D7C",
"i@	c #FEFEFE",
"j@	c #989997",
"k@	c #484847",
"l@	c #F7F9F8",
"m@	c #959493",
"n@	c #2B2C2A",
"o@	c #060806",
"p@	c #2B2A29",
"q@	c #484746",
"r@	c #7F7F7E",
"s@	c #F8FAFA",
"t@	c #FDFCFC",
"u@	c #999997",
"v@	c #363533",
"w@	c #020302",
"x@	c #000201",
"y@	c #080A08",
"z@	c #2A2A28",
"A@	c #535352",
"B@	c #888887",
"C@	c #C3C3C4",
"D@	c #FEFEFF",
"E@	c #C7C7C7",
"F@	c #888886",
"G@	c #6F6E6D",
"H@	c #696967",
"I@	c #717170",
"J@	c #7F7F7D",
"K@	c #929291",
"L@	c #B2B2B2",
"M@	c #DBDCDD",
"N@	c #EBEAEA",
"O@	c #E7E6E7",
"P@	c #E6E6E7",
"Q@	c #F8F8F8",
"                                                                ",
". + @ # $ % & * =                       . - ; > , ; ' ) !       ",
"~ { ] ^ / ( _ : <                     [ } | 1 2 3 4 5 6 # 7     ",
"8 9 0 a b c d e f 7                   g h i j k l m n o p .     ",
"q r s t u v w x p y                   z A B C C D E F G H I     ",
"J K L M N O P Q R y                   S T U C V W X Y Z `  .    ",
"..K +.@.#.$.%.&.*.y                   =.-.;.C C >.E ,.'.` ).    ",
"!.~.{.@.D ].^./.(._.                  :.5 <.C C N [.}.|.1.2.    ",
"!.3.4.5.6.].7.8.*.9.                  =.A 0.C C a.[.b.c.d.e.    ",
"f.g.h.h.6.i.j.k.l.m.n.                o.p.q.C C a.r.s.t.1.u.    ",
"f.v.w.x.y.b z.A.B.C.D.+ E.F.G.H.* e.9.I.T J.C K.L.r.b.M.N.O.    ",
"P.g.Q.R.S.T.r.9 U.V.W.X.Y.Z.Z.X.6 `. + +.+++C C L.@+s.M.1..     ",
"#+$+Q.%+&+*+=+-+;+>+,+'+,+)+!+~+,+{+]+^+/+(+C C _+r.s.:+N.<+    ",
"[+}+Q.%+%+|+1+2+3+4+5+5+}.6+5+7+s.8+9+0+a+b+C C #.@+c+t.~ <+    ",
"d+K @.%+C V |+e+f+g+g+h+g+h+i+j+k+6+l+m+n+o+C C p+q+b.t.r+<+    ",
"q s+Q.C C C C C C C C C C C C C %+t+u+v+w+x+C C D @+c+t.~ y+    ",
"z+r A+C C C C C C C C C C C C C %+B+C+D+E+F+C C D G+H+:+I+y+    ",
"h J+K+L+a M+N+O+P+i+Q+R+Q+S+T+U+V+W+X+Y+Z+o+K.`+#.G+c+:+ @y+    ",
".@+@@@#@$@%@&@*@=@*@-@;@;@>@%@,@'@)@!@~@{@]@C C #.r.b.c.^@!     ",
"/@7 n.n.n.n.                        (@_@:@<@C C [@r.c+M.` }@    ",
"                                      |@-.q.C C [@r.s.:+r+1@    ",
"                                      2@3@4@C C 5@[.c+t.` !     ",
"                                      6@7@8@C C #.r.b.t.^@9@    ",
"                                      0@a@8@C C [@r.b@|.d.c@    ",
"                                      2@3@8@C C 5@E b.d@ @<+    ",
"                                      2@e@f@C C >.X g@h@1..   i@",
"                                      [ j@f@C C 5@X k@Z r+l@  i@",
"                                      [ m@n@C C o@p@q@r@1.s@  t@",
"                                      |@u@v@w@x@y@z@A@B@C@y   D@",
"                                      7 E@F@G@H@I@J@K@L@M@n.    ",
"                                        y I N@O@O@P@G.Q@i@  (@  ",
"                                                                "};
