/* XPM */
static char * 5_xpm[] = {
"32 32 509 2",
"  	c #FFFFFF",
". 	c #F5F6F6",
"+ 	c #EFEFEF",
"@ 	c #E6E6E5",
"# 	c #E3E3E2",
"$ 	c #E9EAEB",
"% 	c #EDEEEF",
"& 	c #ECEDEE",
"* 	c #EFF0F2",
"= 	c #F1F1F3",
"- 	c #F1F1F2",
"; 	c #F1F2F4",
"> 	c #F4F4F6",
", 	c #F2F3F5",
"' 	c #F4F5F7",
") 	c #F5F5F7",
"! 	c #F5F6F7",
"~ 	c #F6F6F8",
"{ 	c #E8E9E8",
"] 	c #E3E4E2",
"^ 	c #E4E5E4",
"/ 	c #DEDFDE",
"( 	c #E1E2E2",
"_ 	c #ECEDEC",
": 	c #FBFBFB",
"< 	c #F2F2F2",
"[ 	c #BBBCBB",
"} 	c #979997",
"| 	c #808480",
"1 	c #747773",
"2 	c #656964",
"3 	c #60635F",
"4 	c #5C615C",
"5 	c #61655F",
"6 	c #5B6059",
"7 	c #5E625C",
"8 	c #5A5F5A",
"9 	c #5E625D",
"0 	c #595E57",
"a 	c #5C605A",
"b 	c #5B605A",
"c 	c #5A5E58",
"d 	c #5C605B",
"e 	c #5A5E59",
"f 	c #585D57",
"g 	c #5F625F",
"h 	c #686A67",
"i 	c #6A6D69",
"j 	c #757775",
"k 	c #848684",
"l 	c #A4A5A4",
"m 	c #D8DAD9",
"n 	c #E1E2E1",
"o 	c #979897",
"p 	c #605F5D",
"q 	c #333433",
"r 	c #161715",
"s 	c #030504",
"t 	c #010302",
"u 	c #000101",
"v 	c #000201",
"w 	c #000202",
"x 	c #010503",
"y 	c #010402",
"z 	c #020503",
"A 	c #000302",
"B 	c #000301",
"C 	c #030604",
"D 	c #070A07",
"E 	c #1B1C1B",
"F 	c #40403F",
"G 	c #7C7C7B",
"H 	c #C1C2C1",
"I 	c #FBFDFC",
"J 	c #DBDCDA",
"K 	c #909090",
"L 	c #565554",
"M 	c #252625",
"N 	c #000000",
"O 	c #070907",
"P 	c #2E2E2D",
"Q 	c #6D6D6C",
"R 	c #BCBCBC",
"S 	c #F8FAF9",
"T 	c #DADBD9",
"U 	c #929292",
"V 	c #555453",
"W 	c #282827",
"X 	c #040605",
"Y 	c #000100",
"Z 	c #010201",
"` 	c #010301",
" .	c #060907",
"..	c #161918",
"+.	c #343332",
"@.	c #717170",
"#.	c #C0C0BF",
"$.	c #F9FBFA",
"%.	c #DCDCDB",
"&.	c #919190",
"*.	c #525251",
"=.	c #292A29",
"-.	c #050806",
";.	c #0B0F0F",
">.	c #1C1E1E",
",.	c #242626",
"'.	c #262828",
").	c #282929",
"!.	c #272828",
"~.	c #272728",
"{.	c #262727",
"].	c #282928",
"^.	c #2F2F2E",
"/.	c #393939",
"(.	c #4D4D4D",
"_.	c #7F7F7F",
":.	c #C9C9C8",
"<.	c #FAFBFB",
"[.	c #DBDBDA",
"}.	c #909191",
"|.	c #504F4F",
"1.	c #2A2A29",
"2.	c #050707",
"3.	c #272928",
"4.	c #414242",
"5.	c #4F5050",
"6.	c #535453",
"7.	c #525352",
"8.	c #535352",
"9.	c #525252",
"0.	c #535252",
"a.	c #535353",
"b.	c #545454",
"c.	c #545353",
"d.	c #565556",
"e.	c #595959",
"f.	c #606062",
"g.	c #757474",
"h.	c #9C9C9C",
"i.	c #D7D7D6",
"j.	c #FDFEFE",
"k.	c #DADAD9",
"l.	c #505050",
"m.	c #0E1110",
"n.	c #3F4140",
"o.	c #6C6C6D",
"p.	c #858687",
"q.	c #8B8C8D",
"r.	c #8A8A8B",
"s.	c #88898A",
"t.	c #89898A",
"u.	c #89888A",
"v.	c #888889",
"w.	c #8B8A8B",
"x.	c #8E8D8E",
"y.	c #939293",
"z.	c #9F9F9F",
"A.	c #E5E6E5",
"B.	c #4F4F4E",
"C.	c #2A2B2A",
"D.	c #080A08",
"E.	c #141614",
"F.	c #555656",
"G.	c #9FA1A0",
"H.	c #C5C6C6",
"I.	c #CACBCC",
"J.	c #CACBCB",
"K.	c #CBCBCB",
"L.	c #CBCBCC",
"M.	c #C9CACA",
"N.	c #CCCDCD",
"O.	c #CDCECE",
"P.	c #D3D4D4",
"Q.	c #DFE0E0",
"R.	c #F3F4F3",
"S.	c #080A09",
"T.	c #151816",
"U.	c #5F605F",
"V.	c #ABADAC",
"W.	c #DADBDA",
"X.	c #E1E0E3",
"Y.	c #E2E2E2",
"Z.	c #E1E1E1",
"`.	c #DEDFE0",
" +	c #DFE0E1",
".+	c #DEE0E0",
"++	c #E0E1E1",
"@+	c #DFE1E0",
"#+	c #E3E4E4",
"$+	c #E5E7E6",
"%+	c #EBECEC",
"&+	c #F8F9F8",
"*+	c #919191",
"=+	c #2B2B2A",
"-+	c #121413",
";+	c #4F5150",
">+	c #8A8C8B",
",+	c #ADAFAF",
"'+	c #B3B5B5",
")+	c #B1B2B2",
"!+	c #B0B2B1",
"~+	c #AFB1B0",
"{+	c #B0B1B1",
"]+	c #AFB0B0",
"^+	c #AFB1B1",
"/+	c #AEB0AF",
"(+	c #AEAFAF",
"_+	c #B0B1B0",
":+	c #B2B3B3",
"<+	c #B6B7B6",
"[+	c #C0C1C0",
"}+	c #D2D2D2",
"|+	c #EFF0F0",
"1+	c #8E8F8F",
"2+	c #505150",
"3+	c #373837",
"4+	c #5C5D5D",
"5+	c #707271",
"6+	c #717271",
"7+	c #737473",
"8+	c #727373",
"9+	c #747473",
"0+	c #747574",
"a+	c #737474",
"b+	c #727372",
"c+	c #767676",
"d+	c #7D7E7D",
"e+	c #8C8D8C",
"f+	c #ACACAB",
"g+	c #DEDFDF",
"h+	c #FEFFFE",
"i+	c #8F908F",
"j+	c #060807",
"k+	c #020403",
"l+	c #1E2120",
"m+	c #363837",
"n+	c #434444",
"o+	c #454645",
"p+	c #474746",
"q+	c #474847",
"r+	c #464746",
"s+	c #454646",
"t+	c #444544",
"u+	c #494949",
"v+	c #666766",
"w+	c #90908F",
"x+	c #D0D1D0",
"y+	c #FDFEFD",
"z+	c #8F9090",
"A+	c #545453",
"B+	c #2D2D2C",
"C+	c #050907",
"D+	c #0E110F",
"E+	c #111513",
"F+	c #121412",
"G+	c #121512",
"H+	c #111411",
"I+	c #131513",
"J+	c #111412",
"K+	c #111312",
"L+	c #171817",
"M+	c #1E1E1E",
"N+	c #2B2A2A",
"O+	c #424241",
"P+	c #7A7A79",
"Q+	c #C5C7C6",
"R+	c #FBFCFB",
"S+	c #8F8F8E",
"T+	c #30302F",
"U+	c #040706",
"V+	c #151616",
"W+	c #2F3030",
"X+	c #6D6E6E",
"Y+	c #FBFCFC",
"Z+	c #DDDEDC",
"`+	c #575756",
" @	c #333331",
".@	c #090D09",
"+@	c #010403",
"@@	c #131413",
"#@	c #2D2E2D",
"$@	c #696A6A",
"%@	c #BCBEBD",
"&@	c #FAFBFC",
"*@	c #A5A4A4",
"=@	c #6A6A69",
"-@	c #454441",
";@	c #262724",
">@	c #181A18",
",@	c #101311",
"'@	c #191B19",
")@	c #191B18",
"!@	c #181B18",
"~@	c #1B1E1B",
"{@	c #1E211E",
"]@	c #1A1E1B",
"^@	c #202320",
"/@	c #212423",
"(@	c #222323",
"_@	c #202323",
":@	c #151717",
"<@	c #060808",
"[@	c #010202",
"}@	c #050706",
"|@	c #141514",
"1@	c #BDBEBD",
"2@	c #FAFCFC",
"3@	c #F5F5F4",
"4@	c #D3D2D3",
"5@	c #BBBABA",
"6@	c #A7A7A8",
"7@	c #A2A1A2",
"8@	c #979899",
"9@	c #98999A",
"0@	c #97989A",
"a@	c #9B9C9D",
"b@	c #9B9D9D",
"c@	c #98999B",
"d@	c #9C9C9D",
"e@	c #999A9C",
"f@	c #9A9B9C",
"g@	c #9A9A9B",
"h@	c #999899",
"i@	c #9E9E9F",
"j@	c #878788",
"k@	c #575859",
"l@	c #2B2B2C",
"m@	c #101111",
"n@	c #070908",
"o@	c #0B0D0C",
"p@	c #161716",
"q@	c #2D2D2D",
"r@	c #6B6B6B",
"s@	c #FCFDFD",
"t@	c #FAFBFA",
"u@	c #F8F9F9",
"v@	c #F6F7F7",
"w@	c #F9FAFA",
"x@	c #FBFCFD",
"y@	c #FCFEFE",
"z@	c #FDFEFF",
"A@	c #FEFFFF",
"B@	c #FDFFFF",
"C@	c #FCFEFF",
"D@	c #F2F4F4",
"E@	c #CFD0CF",
"F@	c #878888",
"G@	c #404141",
"H@	c #1C1C1C",
"I@	c #0D0E0E",
"J@	c #0E0F0E",
"K@	c #6A6A6A",
"L@	c #FDFDFD",
"M@	c #FFFFFD",
"N@	c #DFE0DF",
"O@	c #929393",
"P@	c #444545",
"Q@	c #1F201F",
"R@	c #101110",
"S@	c #0F100F",
"T@	c #171716",
"U@	c #BCBDBC",
"V@	c #FEFEFE",
"W@	c #FFFEFF",
"X@	c #F8F8F9",
"Y@	c #D4D5D4",
"Z@	c #898A8A",
"`@	c #404142",
" #	c #1D1E1D",
".#	c #0D0E0D",
"+#	c #6B6C6B",
"@#	c #EFF0EF",
"##	c #E3E4E3",
"$#	c #D7D8D7",
"%#	c #D0D1CF",
"&#	c #CECFCD",
"*#	c #CDCECD",
"=#	c #CDCECC",
"-#	c #D1D1CF",
";#	c #CFD0CE",
">#	c #D1D2CD",
",#	c #D1D2D0",
"'#	c #D4D4D2",
")#	c #D0D0CE",
"!#	c #D2D3D1",
"~#	c #CCCDCC",
"{#	c #717272",
"]#	c #363636",
"^#	c #161717",
"/#	c #0A0B0B",
"(#	c #090A09",
"_#	c #151615",
":#	c #EEEFEE",
"<#	c #CECECE",
"[#	c #B4B4B4",
"}#	c #A0A09F",
"|#	c #949493",
"1#	c #8F8F8F",
"2#	c #8E8E8D",
"3#	c #8D8D8C",
"4#	c #8B8B8A",
"5#	c #8B8A8A",
"6#	c #8A8A8A",
"7#	c #8A8B8A",
"8#	c #8B8B8B",
"9#	c #8A8B8B",
"0#	c #505151",
"a#	c #030605",
"b#	c #050807",
"c#	c #151515",
"d#	c #BCBDBD",
"e#	c #B5B6B6",
"f#	c #8C8B8B",
"g#	c #656564",
"h#	c #5E5E5D",
"i#	c #5C5C5B",
"j#	c #5D5D5C",
"k#	c #5D5E5D",
"l#	c #5C5C5C",
"m#	c #595A59",
"n#	c #4C4C4C",
"o#	c #333333",
"p#	c #1A1C1B",
"q#	c #070A09",
"r#	c #2C2C2C",
"s#	c #6A6B6B",
"t#	c #BBBDBC",
"u#	c #DDDEDD",
"v#	c #A2A2A2",
"w#	c #6B6B6A",
"x#	c #3E3F3D",
"y#	c #2C2D2B",
"z#	c #232423",
"A#	c #232524",
"B#	c #242625",
"C#	c #262826",
"D#	c #262827",
"E#	c #272827",
"F#	c #262726",
"G#	c #222423",
"H#	c #1E1F1F",
"I#	c #D8D9D8",
"J#	c #979797",
"K#	c #585957",
"L#	c #333533",
"M#	c #151514",
"N#	c #2F302F",
"O#	c #D5D6D5",
"P#	c #030705",
"Q#	c #302F2E",
"R#	c #6A6968",
"S#	c #BDBDBC",
"T#	c #DDDDDC",
"U#	c #616160",
"V#	c #3D3C3C",
"W#	c #1F1F1E",
"X#	c #060707",
"Y#	c #040505",
"Z#	c #050606",
"`#	c #060706",
" $	c #080908",
".$	c #080909",
"+$	c #0A0C0C",
"@$	c #121313",
"#$	c #222222",
"$$	c #3C3C3B",
"%$	c #F0F0EF",
"&$	c #BEBEBD",
"*$	c #969595",
"=$	c #81807E",
"-$	c #737271",
";$	c #6A6C6C",
">$	c #696A69",
",$	c #686867",
"'$	c #676967",
")$	c #676766",
"!$	c #666866",
"~$	c #656766",
"{$	c #656765",
"]$	c #646565",
"^$	c #676867",
"/$	c #686969",
"($	c #686968",
"_$	c #6E6E6C",
":$	c #757575",
"<$	c #868585",
"[$	c #A6A5A5",
"}$	c #DDDDDD",
"|$	c #F6F5F5",
"1$	c #EEEDED",
"2$	c #E9E8E8",
"3$	c #E5E4E4",
"4$	c #EAE9EA",
"5$	c #E9E8E9",
"6$	c #EDEBEC",
"7$	c #EDECEC",
"8$	c #EEEDEE",
"9$	c #ECEBEC",
"0$	c #EDECED",
"a$	c #EBEBEB",
"b$	c #ECECED",
"c$	c #ECEBEB",
"d$	c #EBEAEA",
"e$	c #EAE9E9",
"f$	c #E1E0E1",
"g$	c #DFDFE0",
"h$	c #E0E0E1",
"i$	c #D9D9D9",
"j$	c #EEEFEF",
"                                                                ",
"  . + @ # $ % & * = - = * ; > , , ' ) ' ! ' ~ { ] ^ / ( _ :     ",
"< [ } | 1 2 3 4 5 6 7 8 9 0 a b 9 c d e 9 f d g h i j k l m     ",
"n o p q r s t u v v w t x y z y z y y A y B y z C D E F G H I   ",
"J K L M z N N N N N N N N N N N N N N N N N N N N N O P Q R S   ",
"T U V W X N N N N N Y Y Y u v v u u v v Y Y Y Z `  ...+.@.#.$.  ",
"%.&.*.=.-.N N u ;.>.,.'.).!.!.!.!.~.!.{.'.'.{.{.].^./.(._.:.<.  ",
"[.}.|.1.-.N N 2.3.4.5.6.7.8.9.9.9.0.a.0.0.a.b.c.d.e.f.g.h.i.j.  ",
"k.K l.1.O N N m.n.o.p.q.r.s.t.t.t.u.t.t.t.v.t.t.w.x.y.z.R A.    ",
"T }.B.C.D.N N E.F.G.H.I.J.K.L.J.K.K.K.J.J.K.J.M.J.N.O.P.Q.R.    ",
"%.}.l.C.S.N N T.U.V.W.X.Y.Q.Z.Q.Z.Q.Z.`.Y. +( .+++@+#+$+%+&+    ",
"W.*+B.=+O N N -+;+>+,+'+)+!+~+~+{+{+]+^+{+]+/+(+_+:+<+[+}+|+    ",
"k.1+2+C.O N N S.3+4+5+6+7+8+9+7+0+a+9+7+0+7+7+b+9+c+d+e+f+g+h+  ",
"k.i+l.C.j+N N k+l+m+n+o+p+q+q+r+q+p+q+r+r+s+s+t+o+u+7.v+w+x+y+  ",
"%.z+A+B+D.N N N C+D+E+F+G+H+I+H+I+J+I+-+F+K+-+-+L+M+N+O+P+Q+R+  ",
"k.S+8.T+D N N N N N N N N N N N N N N N N N N N u U+V+W+X+[+Y+  ",
"Z+w+`+ @.@N N N N N N N N N N N N N N N N N N N N +@@@#@$@%@&@  ",
"@ *@=@-@;@>@,@J+'@'@)@!@~@~@{@]@^@/@(@l+_@:@<@[@u }@|@#@$@1@2@  ",
"3@4@5@6@7@8@9@0@a@b@a@c@d@e@f@c@g@h@i@d@j@k@l@m@n@o@p@q@r@1@s@  ",
"  R+t@u@v@w@<.Y+x@s@j.y@z@y@A@B@C@s@s@D@E@F@G@H@I@J@p@q@K@1@L@  ",
"                            B@        M@N@O@P@Q@R@S@T@#@K@U@s@  ",
"        V@                      W@  W@X@Y@Z@`@ #S@.#T@B++#1@V@  ",
"L@@###$#%#&#*#=#-#;#>#,#'#)#!#%#-#;#x+~#_+{#]#^#/#(#_#B+r@1@j.  ",
":#<#[#}#|#1#2#3#4#4#5#6#5#7#4#7#7#6#8#9#d+0#!.m@a#b#c#B+r@d#j.  ",
"^ e#f#@.g#h#i#i#h#j#h#k#k#l#h#h#k#i#i#m#n#o#p#q#Z b#_#r#s#t#j.  ",
"u#v#w#B.x#y#z#A#B#M M M C#D#E#D#!.F#M G#H#|@o@t Y s _#P s#U@V@  ",
"I#J#K#L#'@t N N N N N N N N Y Y Y Z Z Z Z v u N N y M#N#+#%@j.  ",
"O#K B.M t N N N N N N N N N N N N N N N N N N N N P#T@Q#R#S#V@  ",
"T#J#U#V#W#o@X#Y#Z#X }@Z#`#}@(#S. $.$(#(#n@ $ $ $+$@$#$$$9+[+j.  ",
"%$&$*$=$-$;$$@>$,$'$)$!$v+!$~${$]$^$v+^$^$/$($w#w#_$:$<$[$}$    ",
"V@|$1$2$3$4$5$5$6$7$8$9$1$0$0$a$b$9$0$c$d$e$5$f$g$h$i$g+j$s@    ",
"                                                                "};
