/* XPM */
static char * 8_xpm[] = {
"32 32 520 2",
"  	c #FFFFFF",
". 	c #FFFDFF",
"+ 	c #FFFFFE",
"@ 	c #FEFEFF",
"# 	c #F8F8F9",
"$ 	c #F1F1F2",
"% 	c #ECEDEE",
"& 	c #F2F2F4",
"* 	c #F2F1F3",
"= 	c #F4F3F5",
"- 	c #F3F1F4",
"; 	c #F6F5F8",
"> 	c #F5F5F7",
", 	c #F6F5F7",
"' 	c #F7F6F9",
") 	c #F8F7F9",
"! 	c #F7F7F9",
"~ 	c #F9F8FA",
"{ 	c #EFF0F0",
"] 	c #ECEDED",
"^ 	c #EBECEC",
"/ 	c #DEE0E0",
"( 	c #DADCDB",
"_ 	c #D6D9D8",
": 	c #D9DCDB",
"< 	c #DDDFDE",
"[ 	c #E5E7E6",
"} 	c #EDEEEE",
"| 	c #FCFDFC",
"1 	c #E0E2E2",
"2 	c #949895",
"3 	c #757977",
"4 	c #6A6F6C",
"5 	c #676B66",
"6 	c #616660",
"7 	c #5F645E",
"8 	c #5B605A",
"9 	c #61655F",
"0 	c #5D625C",
"a 	c #5D615C",
"b 	c #5C605B",
"c 	c #5F635D",
"d 	c #5C605A",
"e 	c #5D605B",
"f 	c #5B5F59",
"g 	c #5D615B",
"h 	c #61635E",
"i 	c #646762",
"j 	c #626460",
"k 	c #696B69",
"l 	c #6A6B69",
"m 	c #717271",
"n 	c #787978",
"o 	c #898A89",
"p 	c #A4A5A5",
"q 	c #C7C7C7",
"r 	c #C2C3C3",
"s 	c #676868",
"t 	c #0E110F",
"u 	c #000101",
"v 	c #000000",
"w 	c #000100",
"x 	c #000201",
"y 	c #010202",
"z 	c #010302",
"A 	c #040605",
"B 	c #070808",
"C 	c #0D100F",
"D 	c #272827",
"E 	c #4B4C4B",
"F 	c #757675",
"G 	c #AAABAB",
"H 	c #E2E3E2",
"I 	c #B5B6B7",
"J 	c #5B5C5C",
"K 	c #0C0E0D",
"L 	c #181818",
"M 	c #3E3E3E",
"N 	c #6A6A6A",
"O 	c #9FA0A0",
"P 	c #DCDDDD",
"Q 	c #B3B4B4",
"R 	c #5C5E5D",
"S 	c #111211",
"T 	c #010201",
"U 	c #010101",
"V 	c #181817",
"W 	c #3B3C3B",
"X 	c #676867",
"Y 	c #9D9D9D",
"Z 	c #DCDDDC",
"` 	c #FEFFFF",
" .	c #B1B2B2",
"..	c #141514",
"+.	c #030504",
"@.	c #0C0E0E",
"#.	c #171918",
"$.	c #202221",
"%.	c #262727",
"&.	c #272929",
"*.	c #282929",
"=.	c #272828",
"-.	c #242626",
";.	c #1B1D1D",
">.	c #070909",
",.	c #151717",
"'.	c #3A3B3A",
").	c #666766",
"!.	c #9C9C9C",
"~.	c #B0B2B2",
"{.	c #5C5D5C",
"].	c #121312",
"^.	c #070908",
"/.	c #101111",
"(.	c #1D1E1E",
"_.	c #343535",
":.	c #4C4C4C",
"<.	c #555656",
"[.	c #555555",
"}.	c #535454",
"|.	c #535353",
"1.	c #525252",
"2.	c #525353",
"3.	c #545454",
"4.	c #505151",
"5.	c #404140",
"6.	c #1A1C1C",
"7.	c #666666",
"8.	c #9B9B9C",
"9.	c #DBDCDB",
"0.	c #B2B3B3",
"a.	c #5A5B5B",
"b.	c #111212",
"c.	c #1C1D1C",
"d.	c #333434",
"e.	c #7E7C7D",
"f.	c #898889",
"g.	c #89898A",
"h.	c #8A8A8B",
"i.	c #88898A",
"j.	c #888889",
"k.	c #8A8A8C",
"l.	c #828384",
"m.	c #656666",
"n.	c #323434",
"o.	c #3A3A3A",
"p.	c #DBDBDB",
"q.	c #B4B6B6",
"r.	c #171817",
"s.	c #010301",
"t.	c #010303",
"u.	c #262726",
"v.	c #494A4A",
"w.	c #7C7D7D",
"x.	c #B4B5B5",
"y.	c #C7C7C8",
"z.	c #C8C9C9",
"A.	c #C8C8C9",
"B.	c #C9C9CA",
"C.	c #CACACB",
"D.	c #C9CACB",
"E.	c #C7C8C9",
"F.	c #C0C1C1",
"G.	c #939394",
"H.	c #4D4E4E",
"I.	c #060808",
"J.	c #191918",
"K.	c #3D3D3C",
"L.	c #696968",
"M.	c #A09FA0",
"N.	c #FDFEFD",
"O.	c #BDBFBE",
"P.	c #686969",
"Q.	c #30302F",
"R.	c #0E0F0F",
"S.	c #030605",
"T.	c #121313",
"U.	c #282827",
"V.	c #4E4F4F",
"W.	c #8B8C8B",
"X.	c #C1C3C3",
"Y.	c #DADBDB",
"Z.	c #DDDFDF",
"`.	c #DDDEDE",
" +	c #DFDFE0",
".+	c #DCDDDE",
"++	c #DCDCDC",
"@+	c #D9DADA",
"#+	c #DBDCDD",
"$+	c #D5D6D6",
"%+	c #A6A7A7",
"&+	c #090C0B",
"*+	c #060807",
"=+	c #202020",
"-+	c #464746",
";+	c #767676",
">+	c #ABABAB",
",+	c #E0E0E0",
"'+	c #FDFFFE",
")+	c #CCCDCD",
"!+	c #888989",
"~+	c #515151",
"{+	c #2B2C2B",
"]+	c #080B0A",
"^+	c #0E0F0E",
"/+	c #727373",
"(+	c #9EA09F",
"_+	c #B0B1B1",
":+	c #AFB1B1",
"<+	c #AFB0B0",
"[+	c #AEAFB0",
"}+	c #ABACAC",
"|+	c #828383",
"1+	c #414343",
"2+	c #080B09",
"3+	c #0F1111",
"4+	c #2E2E2D",
"5+	c #5A5A59",
"6+	c #919190",
"7+	c #BEBEBE",
"8+	c #E8E8E7",
"9+	c #DBDCDC",
"0+	c #B2B2B3",
"a+	c #7A7A7A",
"b+	c #0E1110",
"c+	c #151615",
"d+	c #2C2C2B",
"e+	c #4B4B4B",
"f+	c #747574",
"g+	c #747675",
"h+	c #737474",
"i+	c #737473",
"j+	c #727372",
"k+	c #6D6E6D",
"l+	c #545554",
"m+	c #2A2C2B",
"n+	c #060907",
"o+	c #1D1E1D",
"p+	c #434342",
"q+	c #D4D4D5",
"r+	c #F1F2F1",
"s+	c #E8E9E9",
"t+	c #D0D0D1",
"u+	c #A2A3A3",
"v+	c #626363",
"w+	c #0A0C0C",
"x+	c #1C1C1B",
"y+	c #2A2B2A",
"z+	c #383938",
"A+	c #434443",
"B+	c #444545",
"C+	c #424343",
"D+	c #414241",
"E+	c #444444",
"F+	c #424342",
"G+	c #434544",
"H+	c #454645",
"I+	c #444544",
"J+	c #333534",
"K+	c #141615",
"L+	c #040705",
"M+	c #565656",
"N+	c #949595",
"O+	c #CCCCCB",
"P+	c #E8E8E8",
"Q+	c #FBFCFB",
"R+	c #F5F5F5",
"S+	c #E7E7E7",
"T+	c #BFBFBF",
"U+	c #717272",
"V+	c #1B1B1B",
"W+	c #080C0A",
"X+	c #0F1110",
"Y+	c #171917",
"Z+	c #151716",
"`+	c #161817",
" @	c #161816",
".@	c #131614",
"+@	c #0B0D0A",
"@@	c #333433",
"#@	c #616262",
"$@	c #A6A6A6",
"%@	c #E0E1E1",
"&@	c #F9F9F9",
"*@	c #FAFBFA",
"=@	c #EEEEEF",
"-@	c #C7C8C8",
";@	c #181919",
">@	c #020504",
",@	c #020603",
"'@	c #010402",
")@	c #020402",
"!@	c #020503",
"~@	c #373837",
"{@	c #676767",
"]@	c #ADAEAE",
"^@	c #E9E9E9",
"/@	c #F6F7F7",
"(@	c #E5E6E6",
"_@	c #BFC0C0",
":@	c #6E7070",
"<@	c #1A1B1A",
"[@	c #080A0A",
"}@	c #0E100F",
"|@	c #131515",
"1@	c #171819",
"2@	c #171818",
"3@	c #18191A",
"4@	c #191A1A",
"5@	c #181A1A",
"6@	c #161818",
"7@	c #020403",
"8@	c #343534",
"9@	c #616161",
"0@	c #A5A6A6",
"a@	c #E1E1E1",
"b@	c #FBFCFC",
"c@	c #EAEBEB",
"d@	c #C9CACA",
"e@	c #999A9A",
"f@	c #0D0F0E",
"g@	c #1D1D1D",
"h@	c #2D2E2D",
"i@	c #424241",
"j@	c #4C4C4D",
"k@	c #4D4D4E",
"l@	c #4D4D4D",
"m@	c #4F4F4F",
"n@	c #4E4E4E",
"o@	c #4F4F4E",
"p@	c #393A39",
"q@	c #1D1F1F",
"r@	c #8E8F8F",
"s@	c #E5E6E5",
"t@	c #FAFBFB",
"u@	c #D1D2D2",
"v@	c #919292",
"w@	c #5D5E5E",
"x@	c #292A28",
"y@	c #1F201F",
"z@	c #3F3F3F",
"A@	c #8E8E8F",
"B@	c #A3A3A4",
"C@	c #A4A4A5",
"D@	c #A7A7A8",
"E@	c #A4A4A6",
"F@	c #A6A7A8",
"G@	c #A3A4A5",
"H@	c #A5A5A6",
"I@	c #A2A3A4",
"J@	c #A4A5A6",
"K@	c #9FA0A1",
"L@	c #424545",
"M@	c #383838",
"N@	c #949594",
"O@	c #B9BABA",
"P@	c #6C6D6C",
"Q@	c #20211F",
"R@	c #121413",
"S@	c #929293",
"T@	c #CECFCE",
"U@	c #E9EAEA",
"V@	c #EEEFEF",
"W@	c #F0F1F1",
"X@	c #F0F0F0",
"Y@	c #F1F2F2",
"Z@	c #F2F4F4",
"`@	c #F3F5F5",
" #	c #E9EAEB",
".#	c #ADADAE",
"+#	c #585A5A",
"@#	c #090B0A",
"##	c #737373",
"$#	c #B5B5B5",
"%#	c #606261",
"&#	c #2F2F2F",
"*#	c #595959",
"=#	c #9D9E9E",
"-#	c #FDFFFF",
";#	c #FBFCFE",
">#	c #BCBDBD",
",#	c #5E6060",
"'#	c #3C3D3C",
")#	c #686968",
"!#	c #9F9F9F",
"~#	c #DDDEDD",
"{#	c #B7B7B6",
"]#	c #101110",
"^#	c #131413",
"/#	c #2D2D2D",
"(#	c #D2D4D3",
"_#	c #F7F8F8",
":#	c #FDFEFF",
"<#	c #FEFCFE",
"[#	c #FCFCFD",
"}#	c #F2F3F4",
"|#	c #5A5C5C",
"1#	c #3B3B3A",
"2#	c #9E9E9E",
"3#	c #DEDFDE",
"4#	c #5F6160",
"5#	c #0F100F",
"6#	c #272727",
"7#	c #494949",
"8#	c #7E7F7F",
"9#	c #AFAFAF",
"0#	c #CACBCB",
"a#	c #CFD0D0",
"b#	c #CFD0CF",
"c#	c #D0D1CF",
"d#	c #CDCECE",
"e#	c #CCCDCC",
"f#	c #C4C4C4",
"g#	c #959595",
"h#	c #4C4E4E",
"i#	c #B5B6B5",
"j#	c #5F6060",
"k#	c #111312",
"l#	c #353535",
"m#	c #585858",
"n#	c #7D7E7E",
"o#	c #8B8C8D",
"p#	c #8D8E8E",
"q#	c #8C8D8D",
"r#	c #8C8C8C",
"s#	c #8B8B8B",
"t#	c #8B8C8C",
"u#	c #868787",
"v#	c #353737",
"w#	c #181918",
"x#	c #656565",
"y#	c #9C9B9C",
"z#	c #5E5F5F",
"A#	c #161716",
"B#	c #252524",
"C#	c #595958",
"D#	c #5A5A5A",
"E#	c #5A5B5A",
"F#	c #5B5B5B",
"G#	c #5B5B5A",
"H#	c #545555",
"I#	c #1F2120",
"J#	c #3A3A39",
"K#	c #DDDDDD",
"L#	c #161717",
"M#	c #1A1C1B",
"N#	c #252625",
"O#	c #292B2A",
"P#	c #292A2A",
"Q#	c #232525",
"R#	c #1B1D1C",
"S#	c #191A19",
"T#	c #666665",
"U#	c #DDDDDC",
"V#	c #B8B8B7",
"W#	c #606160",
"X#	c #3C3C3B",
"Y#	c #686868",
"Z#	c #9E9D9E",
"`#	c #B9B9B9",
" $	c #5F5F5E",
".$	c #121211",
"+$	c #000001",
"@$	c #020000",
"#$	c #151514",
"$$	c #6A6969",
"%$	c #9E9D9D",
"&$	c #DEDEDD",
"*$	c #FEFFFE",
"=$	c #FEFEFE",
"-$	c #C2C2C1",
";$	c #6B6A6A",
">$	c #21211F",
",$	c #0D0E0D",
"'$	c #080908",
")$	c #070807",
"!$	c #0C0D0D",
"~$	c #0D0E0E",
"{$	c #0A0B0B",
"]$	c #0B0B0B",
"^$	c #0C0C0C",
"/$	c #262525",
"($	c #4A4949",
"_$	c #747474",
":$	c #A9A9A9",
"<$	c #E3E3E3",
"[$	c #DFDFDE",
"}$	c #9C9D9A",
"|$	c #7E7D7C",
"1$	c #737372",
"2$	c #706F6D",
"3$	c #6E6D6C",
"4$	c #6A6B6A",
"5$	c #6A6A69",
"6$	c #696A69",
"7$	c #6B6B6B",
"8$	c #6B6C6B",
"9$	c #6D6D6D",
"0$	c #6F6F6F",
"a$	c #787777",
"b$	c #878787",
"c$	c #A6A5A5",
"d$	c #C5C5C5",
"e$	c #EEEEEE",
"f$	c #E4E4E3",
"g$	c #DFDEDE",
"h$	c #E2E1E2",
"i$	c #DFDEDF",
"j$	c #E2E2E3",
"k$	c #E4E3E4",
"l$	c #E5E4E5",
"m$	c #E4E4E5",
"n$	c #E6E5E5",
"o$	c #E6E5E6",
"p$	c #E1E1E2",
"q$	c #DCDCDD",
"r$	c #DDDDDE",
"s$	c #DEDEDE",
"t$	c #F4F5F5",
"u$	c #FFFEFF",
"                          .                   +                 ",
"@ # $ % $ & * = - = ; > , ' ) ' ! ! ~ { ] ^ / ( _ : < [ } |     ",
"1 2 3 4 5 6 7 8 9 0 a b c d e f c f g h i j k l m n o p q ]     ",
"r s t u v v v v v v u u u u u u u w u x y z A B C D E F G H     ",
"I J K v v v v v v v v v v v v v v v v v v v v v w L M N O P     ",
"Q R S v v v v w T T y y z T T T T x T U u v v v v V W X Y Z `   ",
" .J ..v v u +.@.#.$.%.&.*.&.&.=.=.&.&.-.;.>.v v v ,.'.).!.Z     ",
"~.{.].v v ^./.(._.:.<.[.}.|.|.1.1.2.3.4.5.6.u v v L '.7.8.9.`   ",
"0.a.b.v u K c.d.<.e.f.g.h.i.h.g.g.j.k.l.m.n.y v v V o.7.Y p.`   ",
"q.a.r.s.t.].u.v.w.x.y.z.A.B.C.D.z.A.E.F.G.H.I.v z J.K.L.M.p.N.  ",
"O.P.Q.R.S.T.U.V.W.X.Y.Z.`.P  +.+++@+#+$+%+<.&+v *+=+-+;+>+,+'+  ",
")+!+~+{+]+^+=+5./+(+Q q. . ._+:+<+[+_+}+|+1+2+w 3+4+5+6+7+8+`   ",
"9+0+a+v.b+S.c+d+e+).f+g+F h+F g+i+/+j+k+l+m+n+^.o+p+n  .q+r+    ",
"s+t+u+v+#.u w+x+y+z+A+B+C+D+E+A+F+G+H+I+J+K+L+b.{+M+N+O+P+Q+    ",
"R+S+T+U+V+v y W+X+..r.Y+Y+Z+Y+r.`+Z+ @.@+@T w c+@@#@$@%@&@      ",
"*@=@-@g+;@v v U T z s.z >@S.,@'@S.)@!@T w v w r.~@{@]@^@`       ",
"/@(@_@:@<@v T [@}@|@1@2@3@4@;@1@5@4@5@6@@.7@w ..8@9@0@a@b@      ",
"c@d@e@a.K+T f@g@h@i@j@j@k@l@m@n@o@:.n@e+p@q@A K y+~+r@r s@t@    ",
"u@v@w@x@n+K y@z@{@A@B@C@D@E@F@G@H@I@J@K@w.L@2+T Z+M@7.N@_@]     ",
"O@P@Q@s.u R@{+[.S@T@U@V@V@W@X@W@Y@Z@`@ #.#+#@#v z y@-+##D@a@    ",
"$#%#c+w w K+&#*#=#`.-#                ;#>#,#@#v v r.'#)#!#~#    ",
"{#%#]#v w ^#/#M+N+(#_#:#<#@ @ @ | :#[#}# .|#@#v v r.1#{@2#3#    ",
"{#4#].v v 5#6#7#8#9#0#a#b#T@c#d#e#e#e#f#g#h#I.v v r.o.7.Y 3#    ",
"i#j#k#v v ^.o+l#m#n#o#p#q#r#r#s#s#s#t#u#P@v#y v v w#p@x#y#~#    ",
"$#z#A#v v s.3+B#~@l@C#D#E#D#F#G#D#5+*#H#I+I#u v v w#J#x#8.K#    ",
"i#j#L#v v v U K M#N#*.*.O#P#P#P#P#P#P#Q#R#@#v v v S#1#T#!.U#    ",
"V#W#K+v v v v v u x x x T u u u u u u w w v v v v w#X#Y#Z#3#` ` ",
"`# $.$+$v v v v v v v v v v v v v v v @$v v v v v #$K.$$%$&$*$=$",
"-$;$>$,$'$B )$'$@#@#!$!$!$!$~$!$~$~$!${${${$]$^$b./$($_$:$<$`   ",
"[$}$|$1$2$3$;$4$5$l 6$6$L.4$6$4$N 4$7$8$7$N 9$9$0$a$b$c$d$e$    ",
"b@e$f$,+g$h$i$j$k$l$m$k$m$n$o$l$l$l$k$a@j$p$q$q$r$s$<$U@t$*$    ",
"                                      u$                        "};
