/* XPM */
static char * 9_xpm[] = {
"32 32 465 2",
"  	c #FFFFFF",
". 	c #FFFFFE",
"+ 	c #FEFFFF",
"@ 	c #F8F9F9",
"# 	c #EDEDED",
"$ 	c #E3E4E3",
"% 	c #DBDCDB",
"& 	c #DEDFDF",
"* 	c #E1E2E2",
"= 	c #E1E2E3",
"- 	c #E6E7E6",
"; 	c #E7E8E8",
"> 	c #E8E9E9",
", 	c #E8E9EA",
"' 	c #E9E9EA",
") 	c #E9E9EB",
"! 	c #EAEBEC",
"~ 	c #E9EAEB",
"{ 	c #EBECED",
"] 	c #ECEDEE",
"^ 	c #EAEAEB",
"/ 	c #E0E1E1",
"( 	c #DBDDDB",
"_ 	c #DDDEDD",
": 	c #D6D9D7",
"< 	c #DADCDB",
"[ 	c #E3E5E5",
"} 	c #F2F3F4",
"| 	c #FDFEFE",
"1 	c #F9F9F9",
"2 	c #D0D2D1",
"3 	c #A5A6A5",
"4 	c #878988",
"5 	c #797A79",
"6 	c #6F716F",
"7 	c #6A6C6A",
"8 	c #666867",
"9 	c #666864",
"0 	c #636562",
"a 	c #646662",
"b 	c #606461",
"c 	c #616561",
"d 	c #5F6460",
"e 	c #606460",
"f 	c #636662",
"g 	c #616461",
"h 	c #636663",
"i 	c #656765",
"j 	c #6B6C6A",
"k 	c #6C6E6C",
"l 	c #737473",
"m 	c #7D7E7C",
"n 	c #959795",
"o 	c #BEBFBF",
"p 	c #EEF0F1",
"q 	c #F0F1F1",
"r 	c #BBBCBC",
"s 	c #797979",
"t 	c #4C4C4B",
"u 	c #2E2E2D",
"v 	c #141616",
"w 	c #0B0D0C",
"x 	c #080A09",
"y 	c #090B0A",
"z 	c #080B0A",
"A 	c #0A0C0B",
"B 	c #0B0E0C",
"C 	c #0D0F0E",
"D 	c #0C0F0E",
"E 	c #0C0E0D",
"F 	c #0B0E0D",
"G 	c #0C0F0D",
"H 	c #0A0D0C",
"I 	c #0F1110",
"J 	c #141514",
"K 	c #1F1F1E",
"L 	c #2F302F",
"M 	c #595A59",
"N 	c #9D9E9E",
"O 	c #E4E6E6",
"P 	c #EEEFEE",
"Q 	c #B6B6B6",
"R 	c #6E6E6D",
"S 	c #3D3D3C",
"T 	c #1B1B1A",
"U 	c #000101",
"V 	c #000000",
"W 	c #000100",
"X 	c #010402",
"Y 	c #111111",
"Z 	c #232323",
"` 	c #4D4E4D",
" .	c #979897",
"..	c #E0E2E2",
"+.	c #EDEEED",
"@.	c #B6B7B7",
"#.	c #3C3C3B",
"$.	c #1C1C1B",
"%.	c #010201",
"&.	c #010302",
"*.	c #010202",
"=.	c #020302",
"-.	c #020403",
";.	c #010101",
">.	c #252524",
",.	c #515251",
"'.	c #9A9C9B",
").	c #6D6C6C",
"!.	c #3B3B3B",
"~.	c #1C1D1C",
"{.	c #080B0B",
"].	c #181A19",
"^.	c #242625",
"/.	c #282929",
"(.	c #292A2A",
"_.	c #292929",
":.	c #292A29",
"<.	c #252627",
"[.	c #1C1D1E",
"}.	c #0E1010",
"|.	c #0F100F",
"1.	c #242323",
"2.	c #535353",
"3.	c #999C9B",
"4.	c #E2E3E3",
"5.	c #B5B6B6",
"6.	c #6B6B6A",
"7.	c #3B3B3A",
"8.	c #1B1C1B",
"9.	c #171919",
"0.	c #363837",
"a.	c #4D4E4E",
"b.	c #555555",
"c.	c #545554",
"d.	c #545454",
"e.	c #555554",
"f.	c #555557",
"g.	c #565656",
"h.	c #515151",
"i.	c #3F403F",
"j.	c #242424",
"k.	c #0D0F0F",
"l.	c #010303",
"m.	c #232322",
"n.	c #515252",
"o.	c #9B9C9B",
"p.	c #EDEEEE",
"q.	c #6C6C6B",
"r.	c #030505",
"s.	c #262828",
"t.	c #565756",
"u.	c #7C7D7D",
"v.	c #89898A",
"w.	c #8A8B8B",
"x.	c #8A8A8B",
"y.	c #8B8B8C",
"z.	c #8C8C8D",
"A.	c #8B8C8C",
"B.	c #848585",
"C.	c #636464",
"D.	c #393A39",
"E.	c #1C1C1C",
"F.	c #060907",
"G.	c #0F0F0F",
"H.	c #505151",
"I.	c #999B9A",
"J.	c #6B6B6B",
"K.	c #3A3B3A",
"L.	c #1D1D1C",
"M.	c #080A0A",
"N.	c #363838",
"O.	c #7B7B7B",
"P.	c #CBCCCB",
"Q.	c #CBCCCC",
"R.	c #CDCECD",
"S.	c #CCCDCD",
"T.	c #CCCCCC",
"U.	c #CBCBCB",
"V.	c #CACBCA",
"W.	c #CACBCB",
"X.	c #C9CACA",
"Y.	c #BDBEBE",
"Z.	c #4D4D4E",
"`.	c #252625",
" +	c #090C0B",
".+	c #010403",
"++	c #232222",
"@+	c #9A9B9B",
"#+	c #E2E3E4",
"$+	c #EEEEEE",
"%+	c #6C6C6C",
"&+	c #1E1E1D",
"*+	c #424443",
"=+	c #939494",
"-+	c #DFE1E1",
";+	c #FBFDFD",
">+	c #FDFFFF",
",+	c #FCFEFE",
"'+	c #FDFEFF",
")+	c #FCFDFD",
"!+	c #E8EAE9",
"~+	c #ACAEAE",
"{+	c #5E5E5E",
"]+	c #2A2B2B",
"^+	c #020504",
"/+	c #10100F",
"(+	c #1D1E1C",
"_+	c #454646",
":+	c #9C9D9C",
"<+	c #E9EAEA",
"[+	c #F0F2F2",
"}+	c #B7B8B8",
"|+	c #646565",
"1+	c #2C2D2D",
"2+	c #101010",
"3+	c #E2E2E3",
"4+	c #1D1E1D",
"5+	c #3F4140",
"6+	c #8B8B8B",
"7+	c #D4D6D5",
"8+	c #EEF1F0",
"9+	c #F2F4F4",
"0+	c #F1F3F3",
"a+	c #EFF1F1",
"b+	c #EFF0F0",
"c+	c #EEF0EF",
"d+	c #EDEFEE",
"e+	c #A9ABAA",
"f+	c #5D5E5E",
"g+	c #E3E3E4",
"h+	c #050707",
"i+	c #2A2C2B",
"j+	c #5C5D5D",
"k+	c #949695",
"l+	c #959796",
"m+	c #939594",
"n+	c #969897",
"o+	c #969896",
"p+	c #979997",
"q+	c #979998",
"r+	c #8D8F8E",
"s+	c #6E6F6E",
"t+	c #404241",
"u+	c #1B1D1D",
"v+	c #050807",
"w+	c #000201",
"x+	c #6D6D6D",
"y+	c #3C3C3C",
"z+	c #191C1B",
"A+	c #252726",
"B+	c #2C2D2C",
"C+	c #303130",
"D+	c #313231",
"E+	c #2E302E",
"F+	c #2C2D2B",
"G+	c #2D2E2D",
"H+	c #232423",
"I+	c #131514",
"J+	c #030504",
"K+	c #B7B7B7",
"L+	c #6D6E6D",
"M+	c #3D3D3D",
"N+	c #000301",
"O+	c #505050",
"P+	c #6F706F",
"Q+	c #3E3E3E",
"R+	c #1B1C1A",
"S+	c #020402",
"T+	c #000102",
"U+	c #505150",
"V+	c #7A7979",
"W+	c #494949",
"X+	c #2C2C2B",
"Y+	c #1C1D1D",
"Z+	c #121414",
"`+	c #111312",
" @	c #111212",
".@	c #101211",
"+@	c #111413",
"@@	c #121413",
"#@	c #141615",
"$@	c #141614",
"%@	c #101313",
"&@	c #0B0E0E",
"*@	c #060808",
"=@	c #EFF0EF",
"-@	c #C6C7C7",
";@	c #909090",
">@	c #686868",
",@	c #474747",
"'@	c #404141",
")@	c #414142",
"!@	c #414242",
"~@	c #404040",
"{@	c #424242",
"]@	c #434444",
"^@	c #424243",
"/@	c #424343",
"(@	c #3F3F3F",
"_@	c #373737",
":@	c #1A1C1C",
"<@	c #090B0B",
"[@	c #F3F3F3",
"}@	c #D5D5D5",
"|@	c #AEAEAE",
"1@	c #919091",
"2@	c #7E7E7E",
"3@	c #757575",
"4@	c #707070",
"5@	c #6F6F70",
"6@	c #707071",
"7@	c #727272",
"8@	c #6A6B6B",
"9@	c #313232",
"0@	c #141515",
"a@	c #F9FAF9",
"b@	c #E8E8E9",
"c@	c #D5D5D6",
"d@	c #C5C5C6",
"e@	c #BBBBBC",
"f@	c #B4B5B6",
"g@	c #B3B3B4",
"h@	c #B1B1B3",
"i@	c #B2B2B3",
"j@	c #B1B2B3",
"k@	c #B2B3B4",
"l@	c #B3B3B5",
"m@	c #B2B2B4",
"n@	c #B3B4B5",
"o@	c #B3B2B4",
"p@	c #B4B4B5",
"q@	c #A9AAAB",
"r@	c #7E7F7F",
"s@	c #484849",
"t@	c #1F2020",
"u@	c #070A09",
"v@	c #9A9B9A",
"w@	c #FEFEFE",
"x@	c #F5F6F6",
"y@	c #ECEDED",
"z@	c #E6E7E7",
"A@	c #E1E1E2",
"B@	c #DDDEDE",
"C@	c #DCDDDD",
"D@	c #DADBDB",
"E@	c #CCCECE",
"F@	c #9B9C9C",
"G@	c #545555",
"H@	c #272828",
"I@	c #020404",
"J@	c #9B9B9B",
"K@	c #E2E2E2",
"L@	c #D6D8D7",
"M@	c #D0D0D0",
"N@	c #CCCDCC",
"O@	c #CBCDCD",
"P@	c #C2C3C3",
"Q@	c #939493",
"R@	c #4F5050",
"S@	c #252626",
"T@	c #242423",
"U@	c #F8F9F8",
"V@	c #DFE1E0",
"W@	c #C0C0C0",
"X@	c #A9AAAA",
"Y@	c #9A9A9A",
"Z@	c #919292",
"`@	c #898B8A",
" #	c #898A8A",
".#	c #8A8C8C",
"+#	c #848686",
"@#	c #656665",
"##	c #383939",
"$#	c #515150",
"%#	c #F3F4F4",
"&#	c #CECFCF",
"*#	c #A09F9F",
"=#	c #7C7C7C",
"-#	c #595959",
";#	c #585858",
">#	c #565757",
",#	c #575757",
"'#	c #585857",
")#	c #575857",
"!#	c #575858",
"~#	c #0F1212",
"{#	c #020303",
"]#	c #222222",
"^#	c #C0C1C1",
"/#	c #838382",
"(#	c #424241",
"_#	c #2B2C2B",
":#	c #292B2A",
"<#	c #2A2B2A",
"[#	c #272928",
"}#	c #262727",
"|#	c #1D1E1E",
"1#	c #040706",
"2#	c #101110",
"3#	c #E1E1E1",
"4#	c #B8B9B9",
"5#	c #737272",
"6#	c #444443",
"7#	c #242526",
"8#	c #121212",
"9#	c #ECECEC",
"0#	c #3B3A39",
"a#	c #040707",
"b#	c #141414",
"c#	c #4C4B4B",
"d#	c #9A9A99",
"e#	c #E0E0E0",
"f#	c #BBBBBB",
"g#	c #4C4C4C",
"h#	c #343333",
"i#	c #212021",
"j#	c #181819",
"k#	c #131415",
"l#	c #131414",
"m#	c #121213",
"n#	c #111112",
"o#	c #111213",
"p#	c #141415",
"q#	c #131314",
"r#	c #141314",
"s#	c #121314",
"t#	c #101111",
"u#	c #171718",
"v#	c #313131",
"w#	c #9F9F9F",
"x#	c #F6F7F6",
"y#	c #D2D3D2",
"z#	c #A8A8A8",
"A#	c #8C8B8A",
"B#	c #7B7979",
"C#	c #727171",
"D#	c #6E6D6D",
"E#	c #6C6B6B",
"F#	c #6A6A6A",
"G#	c #6B6B6C",
"H#	c #6C6B6C",
"I#	c #777676",
"J#	c #828181",
"K#	c #999898",
"L#	c #C1C0C0",
"M#	c #F0F0F0",
"N#	c #F8F8F8",
"O#	c #EBEBEB",
"P#	c #DBDBDB",
"Q#	c #DBDCDC",
"R#	c #D7D8D9",
"S#	c #D9D9DA",
"T#	c #DADADB",
"U#	c #DBDBDC",
"V#	c #DCDCDC",
"W#	c #DDDDDE",
"X#	c #DDDDDD",
"Y#	c #DEDEDE",
"Z#	c #DEDEDF",
"`#	c #DEDDDE",
" $	c #D8D9D9",
".$	c #D8D8D8",
"+$	c #D5D6D6",
"@$	c #E4E5E5",
"#$	c #F1F2F3",
"                                                    .         + ",
"  @ # $ % & * = - ; > , ' ) ! ~ { ! ] ! ^ , , / ( _ : < [ } | + ",
"1 2 3 4 5 6 7 8 9 0 a b c d e d e e e e f g h i j k l m n o p   ",
"q r s t u v w x y z A B C D C B E F G H C E E F I J K L M N O   ",
"P Q R S T U V V V V V V V V V V V V V V V V V V W X Y Z `  ...  ",
"+.@.R #.$.V V V V W %.&.*.&.=.&.&.-.-.-.-.&.;.V V &.Y >.,.'.*   ",
"P Q ).!.~.V V V {.].^./.(.(.(./.(._.:./.<.[.}.*.V *.|.1.2.3.4.  ",
"+.5.6.7.8.V V %.9.0.a.b.c.c.d.e.f.b.b.g.h.i.j.k.%.l.|.m.n.o.*   ",
"p.5.q.7.~.V V r.s.t.u.v.w.x.y.y.z.x.y.A.B.C.D.E.F.&.G.m.H.I.=   ",
"+.5.J.K.L.V V M.N.O.@.P.Q.R.S.T.U.V.W.X.Y.z.Z.`. +.+|.++n.@+#+  ",
"$+5.%+7.&+V V H *+=+-+;+>+,++ >+'+,+)+;+!+~+{+]+w ^+/+1.,.o.#+  ",
"+.5.J.7.(+V V C _+:+<+                  [+}+|+1+D ^+2+m.h.o.3+  ",
"P 5.%+!.4+V V w 5+6+7+8+9+0+q a+b+c+c+d+& e+f+(.H X 2+Z H.I.g+  ",
"P 5.%+7.(+V V h+i+j+4 k+l+k+m+l+n+o+p+q+r+s+t+u+v+w+G.m.h.'.g+  ",
"P 5.x+y+4+V V W x z+A+B+C+D+C+L E+F+F+G+B+H+I+J+W U G.++,.@+g+  ",
"$+K+L+M+8.W V V V V W N+U U U V W V V V V V V V V ;.G.Z O+o.3+  ",
"P K+P+Q+R+S+V V V V V V V W V V V T+W W W W V V V U |.Z U+@+#+  ",
"P r V+W+X+Y+Z+`+ @ @.@`+`++@@@+@Z+I+#@$@%@&@*@*.V U G.m.U+o.3+  ",
"=@-@;@>@2.,@'@)@!@~@{@]@^@~@/@]@!@(@'@'@_@(.:@<@U %.G.Z h.o.#+  ",
"[@}@|@1@2@3@4@4@4@4@4@4@4@5@5@4@6@5@4@7@8@n.9@0@-.*.G.Z U+o.3+  ",
"a@b@c@d@e@f@g@h@g@i@g@j@k@j@l@m@n@h@o@p@q@r@s@t@u@&.G.Z h.v@3+  ",
"w@x@y@z@A@& B@B@B@B@B@B@B@B@B@C@B@% D@D@E@F@G@H@w I@/+m.,.J@K@  ",
"| q / L@M@S.U.W.T.Q.N@O@S.Q.R.S.S.W.W.W.P@Q@R@S@F J+2+T@,.o.3+  ",
"U@V@W@X@Y@Z@A.6+6+A.w.w.6+w.w.`@w. #w..#+#@###u+u@-.2+Z $#o.A@  ",
"%#&#*#=#>@j+-#;#;#>#,#>#,#t.'#)#!#,#,#g.,.i.A+~#-.{#|.]#H.@+A@  ",
"=@^#/#-#(#C+_#]+]+:#:#(.<#:#:#(.]+/.:.[#}#|#`+1#U &.2#Z n.:+3#  ",
"# 4#5#6#7#*@U W W U U U U U ;.U %.&.{#-.&.{#*.U V -.8#>.,.:+/   ",
"9#@.).0#T U V V V V V V V V V V V V V V V V V V W a#b#T@c#d#e#  ",
"=@f#O.g#h#i#j#k#l#m#l#n#m#o#p#q#q#r#p#q#s#m#s#t#s#u#]#v#,#w#g+  ",
"x#y#z#A#B#C#D#E#q.q.q.%+q.J.J.8@F#J.J.J.J.J.G#%+H#D#I#J#K#L#M#  ",
"  N#O#3+P#Q#R#S#T#U#P#V#W#W#X#W#Y#Z#Y#`#W#W#U# $.$S#+$T#@$#$|   ",
"                                                                "};
