/* XPM */
static char * 0_xpm[] = {
"32 32 392 2",
"  	c #FFFFFF",
". 	c #FCFCFE",
"+ 	c #F1F1F3",
"@ 	c #E9EAEC",
"# 	c #E9EBEC",
"$ 	c #EBECEE",
"% 	c #ECEDEF",
"& 	c #EEEFF0",
"* 	c #F0F1F2",
"= 	c #F1F2F3",
"- 	c #F1F2F4",
"; 	c #F5F6F7",
"> 	c #F7F8F9",
", 	c #F3F5F6",
"' 	c #F4F6F7",
") 	c #F5F7F8",
"! 	c #F4F6F8",
"~ 	c #F2F3F4",
"{ 	c #F2F4F4",
"] 	c #F0F2F2",
"^ 	c #E9EBEA",
"/ 	c #E8EAEA",
"( 	c #E7E8E8",
"_ 	c #E3E4E3",
": 	c #E6E8E7",
"< 	c #F1F2F2",
"[ 	c #FAFBFB",
"} 	c #FCFDFE",
"| 	c #B8BBBC",
"1 	c #6F736F",
"2 	c #60635E",
"3 	c #5E625C",
"4 	c #666862",
"5 	c #656862",
"6 	c #63655F",
"7 	c #5D615B",
"8 	c #5C605B",
"9 	c #5B5F5A",
"0 	c #585E58",
"a 	c #575D57",
"b 	c #575D58",
"c 	c #5B605B",
"d 	c #585F58",
"e 	c #565D57",
"f 	c #565C57",
"g 	c #5A605A",
"h 	c #585D58",
"i 	c #5B5F5B",
"j 	c #5D615C",
"k 	c #666965",
"l 	c #696C68",
"m 	c #717371",
"n 	c #7D7E7D",
"o 	c #9A9C9B",
"p 	c #BEBFBE",
"q 	c #E0E1E0",
"r 	c #FCFDFD",
"s 	c #F7F8FA",
"t 	c #8E908E",
"u 	c #1C1F1E",
"v 	c #000101",
"w 	c #000000",
"x 	c #0D0E0D",
"y 	c #363838",
"z 	c #696969",
"A 	c #9A9A9A",
"B 	c #CCCDCD",
"C 	c #F8F9F8",
"D 	c #F4F5F7",
"E 	c #858885",
"F 	c #141617",
"G 	c #050505",
"H 	c #2A2A2A",
"I 	c #5A5A5A",
"J 	c #919291",
"K 	c #C8C9C9",
"L 	c #F5F6F6",
"M 	c #F2F2F5",
"N 	c #848683",
"O 	c #161919",
"P 	c #000100",
"Q 	c #070908",
"R 	c #282828",
"S 	c #585858",
"T 	c #909090",
"U 	c #C8C8C8",
"V 	c #F5F6F5",
"W 	c #828581",
"X 	c #181A1B",
"Y 	c #010201",
"Z 	c #080A0A",
"` 	c #131413",
" .	c #1C1D1D",
"..	c #232424",
"+.	c #262727",
"@.	c #252626",
"#.	c #242525",
"$.	c #222424",
"%.	c #202222",
"&.	c #1D2020",
"*.	c #181A19",
"=.	c #000002",
"-.	c #080A09",
";.	c #262626",
">.	c #565757",
",.	c #8F8F8F",
"'.	c #C9CACA",
").	c #F6F7F7",
"!.	c #F1F1F4",
"~.	c #808280",
"{.	c #171A1A",
"].	c #010101",
"^.	c #0A0B0B",
"/.	c #191A19",
"(.	c #2A2B2A",
"_.	c #404040",
":.	c #505150",
"<.	c #555655",
"[.	c #555555",
"}.	c #545554",
"|.	c #545453",
"1.	c #535353",
"2.	c #535453",
"3.	c #515251",
"4.	c #4A4C4B",
"5.	c #2B2C2A",
"6.	c #030504",
"7.	c #0B0C0C",
"8.	c #8E8F8F",
"9.	c #C9C9C9",
"0.	c #F6F7F6",
"a.	c #F3F3F6",
"b.	c #7F817E",
"c.	c #181B1B",
"d.	c #040605",
"e.	c #181919",
"f.	c #2C2D2C",
"g.	c #4B4C4C",
"h.	c #6F7070",
"i.	c #858686",
"j.	c #8B8C8C",
"k.	c #8A8B8B",
"l.	c #8B8B8C",
"m.	c #8C8C8D",
"n.	c #878888",
"o.	c #828384",
"p.	c #757676",
"q.	c #505151",
"r.	c #121414",
"s.	c #0C0D0C",
"t.	c #272727",
"u.	c #565656",
"v.	c #FFFFFD",
"w.	c #F4F4F6",
"x.	c #0C0D0D",
"y.	c #232423",
"z.	c #3F4040",
"A.	c #6F6F6F",
"B.	c #A0A0A0",
"C.	c #C6C7C7",
"D.	c #D3D4D3",
"E.	c #D3D3D3",
"F.	c #D1D2D1",
"G.	c #D2D3D2",
"H.	c #CFD0D0",
"I.	c #CBCCCB",
"J.	c #C2C3C3",
"K.	c #A6A7A7",
"L.	c #6E6E6E",
"M.	c #0D0E0E",
"N.	c #282827",
"O.	c #F4F4F7",
"P.	c #80837F",
"Q.	c #282928",
"R.	c #4D4E4D",
"S.	c #838383",
"T.	c #C5C7C6",
"U.	c #F3F5F4",
"V.	c #FEFFFF",
"W.	c #FDFEFE",
"X.	c #7F8080",
"Y.	c #212222",
"Z.	c #282727",
"`.	c #8F908F",
" +	c #7F817F",
".+	c #0E0F0F",
"++	c #2A2A29",
"@+	c #888988",
"#+	c #CBCCCC",
"$+	c #FBFCFC",
"%+	c #FDFDFE",
"&+	c #D7D9D9",
"*+	c #848685",
"=+	c #222423",
"-+	c #8F9090",
";+	c #F5F5F8",
">+	c #7D7F7C",
",+	c #1B1D1D",
"'+	c #0E0E0E",
")+	c #4F504F",
"!+	c #CACBCB",
"~+	c #FBFDFC",
"{+	c #FEFEFF",
"]+	c #D8D9DA",
"^+	c #868786",
"/+	c #212322",
"(+	c #565756",
"_+	c #F5F6F8",
":+	c #7D7F7D",
"<+	c #1A1C1C",
"[+	c #292A29",
"}+	c #4F4F4F",
"|+	c #858685",
"1+	c #FBFCFB",
"2+	c #D7D8D9",
"3+	c #C8C8C9",
"4+	c #F6F6F8",
"5+	c #7D817E",
"6+	c #898A89",
"7+	c #F6F6F9",
"8+	c #7E807D",
"9+	c #1A1B1C",
"0+	c #868686",
"a+	c #D6D7D7",
"b+	c #1F2121",
"c+	c #7D7F7B",
"d+	c #1B1C1D",
"e+	c #D6D8D8",
"f+	c #878987",
"g+	c #202121",
"h+	c #D7D8D8",
"i+	c #888A88",
"j+	c #292929",
"k+	c #FBFBFC",
"l+	c #878887",
"m+	c #232323",
"n+	c #0D0D0D",
"o+	c #C9C9CA",
"p+	c #7C7E7C",
"q+	c #4E4F4F",
"r+	c #878787",
"s+	c #CACACA",
"t+	c #D7D8D7",
"u+	c #7C7E7B",
"v+	c #1C1D1E",
"w+	c #888989",
"x+	c #CCCDCE",
"y+	c #FAFBFC",
"z+	c #D4D6D6",
"A+	c #818382",
"B+	c #F7F7F8",
"C+	c #191B1B",
"D+	c #0C0E0D",
"E+	c #4C4D4C",
"F+	c #C5C6C6",
"G+	c #F4F6F5",
"H+	c #EFF0F1",
"I+	c #CFD0CF",
"J+	c #7E7F7E",
"K+	c #252726",
"L+	c #F7F7F9",
"M+	c #090B0B",
"N+	c #222323",
"O+	c #434343",
"P+	c #6E6F6F",
"Q+	c #A0A1A1",
"R+	c #C5C6C5",
"S+	c #D2D4D2",
"T+	c #D4D5D4",
"U+	c #D5D6D5",
"V+	c #D4D5D3",
"W+	c #D0D2D0",
"X+	c #CDCECD",
"Y+	c #A7A8A7",
"Z+	c #6C6D6C",
"`+	c #F5F5F5",
" @	c #F6F7F9",
".@	c #191B1A",
"+@	c #020406",
"@@	c #161717",
"#@	c #323332",
"$@	c #717271",
"%@	c #8D8E8E",
"&@	c #8D8E8D",
"*@	c #8D8D8D",
"=@	c #8C8D8C",
"-@	c #898989",
";@	c #777877",
">@	c #525352",
",@	c #151717",
"'@	c #575757",
")@	c #929392",
"!@	c #EFF0F0",
"~@	c #81837F",
"{@	c #171919",
"]@	c #090B0A",
"^@	c #1D1E1E",
"/@	c #454545",
"(@	c #5A5B5A",
"_@	c #5A5B5B",
":@	c #5B5B5B",
"<@	c #595959",
"[@	c #363836",
"}@	c #040505",
"|@	c #0B0C0B",
"1@	c #252625",
"2@	c #939594",
"3@	c #CDCECE",
"4@	c #ECEDED",
"5@	c #F3F3F5",
"6@	c #81847F",
"7@	c #141616",
"8@	c #111312",
"9@	c #1A1C1B",
"0@	c #242625",
"a@	c #232524",
"b@	c #1F2120",
"c@	c #171816",
"d@	c #090A09",
"e@	c #949594",
"f@	c #CECFCF",
"g@	c #E9EBEB",
"h@	c #888A84",
"i@	c #020000",
"j@	c #080909",
"k@	c #262625",
"l@	c #575857",
"m@	c #939494",
"n@	c #E9EAEA",
"o@	c #FDFFFF",
"p@	c #F5F5F6",
"q@	c #888A85",
"r@	c #131312",
"s@	c #030403",
"t@	c #262525",
"u@	c #5A5A59",
"v@	c #909190",
"w@	c #CFCFD0",
"x@	c #EAEBEB",
"y@	c #F9FAFB",
"z@	c #8F918C",
"A@	c #151613",
"B@	c #020302",
"C@	c #0A0A09",
"D@	c #333332",
"E@	c #646565",
"F@	c #D2D3D3",
"G@	c #EAECEB",
"H@	c #FEFEFE",
"I@	c #BAB9BA",
"J@	c #71716E",
"K@	c #626261",
"L@	c #676865",
"M@	c #6A6B68",
"N@	c #656664",
"O@	c #646563",
"P@	c #646664",
"Q@	c #666765",
"R@	c #636564",
"S@	c #636563",
"T@	c #656764",
"U@	c #656766",
"V@	c #666866",
"W@	c #696A69",
"X@	c #6A6B6A",
"Y@	c #6D6E6D",
"Z@	c #6D6D6D",
"`@	c #6E6F6E",
" #	c #767676",
".#	c #828282",
"+#	c #BEBEBE",
"@#	c #E0E1E1",
"##	c #F1F1F1",
"$#	c #F4F4F5",
"%#	c #EEEDEE",
"&#	c #EBEAEC",
"*#	c #ECEBEC",
"=#	c #F0EFF0",
"-#	c #F1EFF0",
";#	c #F2F1F2",
">#	c #F1F0F1",
",#	c #F3F2F3",
"'#	c #F3F2F2",
")#	c #EFEDEE",
"!#	c #EDECED",
"~#	c #EBE9EA",
"{#	c #E8E6E7",
"]#	c #E5E3E4",
"^#	c #E4E3E4",
"/#	c #E2E2E2",
"(#	c #EBEBEB",
"_#	c #FBFBFB",
"                                                                ",
"    . + @ # $ % & * = - ; ; > , ' , ) , ! ~ { ] ^ / ( _ : < [   ",
"  } | 1 2 3 4 5 6 7 8 9 9 0 a b c d e f g h i j k l m n o p q r ",
"  s t u v w w w w w w w w w w w w w w w w w w w w v x y z A B C ",
"  D E F w w w w w w w w w w w w w w w w w w w w w w G H I J K L ",
"  M N O w w w w w P P P P P P w w w w w w w w w w w Q R S T U V ",
"  M W X w w w Y Z `  ...+.+.@.#.#.#.$.%.&.*.Q w w =.-.;.>.,.'.).",
"  !.~.{.w w ].^./.(._.:.<.[.}.|.1.|.2.2.3.4.5.6.w w 7.R >.8.9.0.",
"  a.b.c.w w d.e.f.g.h.i.j.k.k.l.m.l.k.n.o.p.q.r.w w s.t.u.8.9.L ",
"v.w.b.X w P x.y.z.A.B.C.D.D.D.E.F.G.H.I.J.K.L. .w w M.N.>.8.9.L ",
"  O.P.c.w P M.Q.R.S.T.U.          V.V.W.; H.X.Y.w w x.Z.>.`.9.0.",
"  w. +c.w P .+++:.@+#+$+                %+&+*+=+w w M.R >.-+9.0.",
"  ;+>+,+w P '+H )+i.!+~+                {+]+^+/+w w M.R (+-+9.V ",
"  _+:+<+w P '+[+}+|+K 1+                r 2+@+%.w w '+R >.`.3+V ",
"  4+5+,+w P '+H )+|+'.$+                %+&+6+Y.w w x.R (+-+9.0.",
"  7+8+9+w v '+[+}+0+9.1+                $+a+6+b+w w .+R (+,.9.).",
"  4+c+d+w P '+[+}+|+'.1+                $+e+f+g+w w '+t.u.`.9.L ",
"  4+:+<+w P '+[+}+|+3+[                 $+h+i+b+w w '+t.u.,.U L ",
"  7+>+d+w P M.j+)+0+'.~+            v.  k+h+l+m+w w n+t.u.`.o+0.",
"  7+p+<+w v '+j+q+r+s+$+                [ t+^+..w w '+R >.,.9.0.",
"  4+u+v+w P M.j+q+w+x+~+                y+z+A+;.w w M.t.u.`.9.V ",
"  B+>+C+w P D+Q.E+S.F+G+V.        V.W.[ H+I+J+K+w w '+t.(+`.3+0.",
"  L+8+<+w w M+N+O+P+Q+R+S+D.T+U+V+S+W+X+R+Y+Z+%.w w x.t.>.T '.`+",
"   @8+.@w w +@@@#@:.$@6+,.%@&@%@*@&@&@=@-@;@>@,@w w x t.'@)@#+!@",
"  O.~@{@w w v ]@^@#@/@}.(@I (@_@(@I :@:@<@q.[@}@w w |@1@'@2@3@4@",
"  5@6@7@w w w 6.]@8@9@=+@.0@0@a@a@a@=+/+b@c@d@w w w 7.;.'@e@f@g@",
"  M h@7@w w w w w P P v P w w i@w w w w w w w w w w j@k@l@m@H.n@",
"o@p@q@r@w w w w w w w w w w w w w w w w w w w w w w s@t@u@v@w@x@",
"  y@z@A@P P P v P v v ].v ].].].v ].].].v ].P v ].B@C@D@E@e@F@G@",
"  H@I@J@K@L@M@M@N@O@P@Q@R@S@S@T@S@P@U@V@U@W@X@Y@Z@`@ #.#A +#@###",
"    r $#%#&#&#*#=#-#;#>#,#'#,#>#'#;#=#)#=#!#!#~#{#]#^#/#(#$#_#r ",
"                                                                "};
