/* XPM */
static char * 3_xpm[] = {
"32 32 506 2",
"  	c #FFFFFF",
". 	c #FDFDFD",
"+ 	c #F2F3F2",
"@ 	c #E4E6E5",
"# 	c #DFE0DF",
"$ 	c #DCDDDD",
"% 	c #DEDFDE",
"& 	c #EDEEED",
"* 	c #EEEFEF",
"= 	c #F7F8FA",
"- 	c #F9FAFB",
"; 	c #F8F9FB",
"> 	c #F5F6F9",
", 	c #F5F6F8",
"' 	c #F4F5F8",
") 	c #F4F6F8",
"! 	c #F1F2F3",
"~ 	c #F1F2F2",
"{ 	c #EFF0F1",
"] 	c #E2E4E4",
"^ 	c #E5E6E6",
"/ 	c #E7E8E7",
"( 	c #E8E9E8",
"_ 	c #F1F1F1",
": 	c #FCFCFD",
"< 	c #E4E5E4",
"[ 	c #C5C6C6",
"} 	c #9FA0A0",
"| 	c #707470",
"1 	c #686A66",
"2 	c #626661",
"3 	c #5F645E",
"4 	c #61665F",
"5 	c #565D56",
"6 	c #565D57",
"7 	c #5B625D",
"8 	c #5A615B",
"9 	c #5B615C",
"0 	c #5C625C",
"a 	c #5F645F",
"b 	c #5A615A",
"c 	c #5B615B",
"d 	c #5D625B",
"e 	c #61655F",
"f 	c #5F625C",
"g 	c #62655F",
"h 	c #646761",
"i 	c #696B66",
"j 	c #676865",
"k 	c #797A78",
"l 	c #959695",
"m 	c #BCBCBC",
"n 	c #EEEFF0",
"o 	c #D7D7D7",
"p 	c #AEAEAE",
"q 	c #5E5F5E",
"r 	c #181B19",
"s 	c #020503",
"t 	c #000302",
"u 	c #000101",
"v 	c #000000",
"w 	c #000100",
"x 	c #010201",
"y 	c #20201F",
"z 	c #676766",
"A 	c #9B999C",
"B 	c #C8C9C9",
"C 	c #E2E3E3",
"D 	c #E4E5E5",
"E 	c #D2D2D2",
"F 	c #A2A2A2",
"G 	c #4C4D4C",
"H 	c #111311",
"I 	c #161717",
"J 	c #5B5A5A",
"K 	c #909191",
"L 	c #C3C4C4",
"M 	c #DFE0E0",
"N 	c #DFDFE0",
"O 	c #D3D2D2",
"P 	c #A4A4A3",
"Q 	c #535353",
"R 	c #181A18",
"S 	c #010301",
"T 	c #171818",
"U 	c #5A5A59",
"V 	c #8F9090",
"W 	c #DFDEDE",
"X 	c #E0E1E1",
"Y 	c #D8D9D8",
"Z 	c #AEAEAD",
"` 	c #333332",
" .	c #262726",
"..	c #282929",
"+.	c #272828",
"@.	c #242625",
"#.	c #242626",
"$.	c #232525",
"%.	c #272827",
"&.	c #262827",
"*.	c #272928",
"=.	c #252727",
"-.	c #212323",
";.	c #191C1C",
">.	c #0F1211",
",.	c #020403",
"'.	c #181919",
").	c #585858",
"!.	c #909091",
"~.	c #C2C2C3",
"{.	c #E1E1E1",
"].	c #BFBFBE",
"^.	c #888887",
"/.	c #5F5F5E",
"(.	c #555554",
"_.	c #595958",
":.	c #585857",
"<.	c #575756",
"[.	c #545554",
"}.	c #535453",
"|.	c #535352",
"1.	c #525252",
"2.	c #515251",
"3.	c #505050",
"4.	c #4C4C4C",
"5.	c #424342",
"6.	c #313433",
"7.	c #191B1A",
"8.	c #151717",
"9.	c #585958",
"0.	c #8F8F90",
"a.	c #C2C2C2",
"b.	c #DDDEDE",
"c.	c #E3E3E4",
"d.	c #ECECEC",
"e.	c #D5D5D5",
"f.	c #B1B1B1",
"g.	c #949494",
"h.	c #8A8A88",
"i.	c #8A8A8B",
"j.	c #8C8C8C",
"k.	c #8D8C8D",
"l.	c #8B8B8C",
"m.	c #8A8B8B",
"n.	c #8C8B8C",
"o.	c #89898A",
"p.	c #858587",
"q.	c #7A7B7C",
"r.	c #6D6D6D",
"s.	c #545454",
"t.	c #323332",
"u.	c #080B0A",
"v.	c #000001",
"w.	c #141616",
"x.	c #C1C2C2",
"y.	c #E2E2E3",
"z.	c #E0E0E1",
"A.	c #F9FAF9",
"B.	c #EFEFEF",
"C.	c #D6D6D5",
"D.	c #D1D1D1",
"E.	c #D3D3D2",
"F.	c #D2D2D1",
"G.	c #D1D1D0",
"H.	c #CFCFCF",
"I.	c #CFD0D0",
"J.	c #CECECE",
"K.	c #CDCDCD",
"L.	c #CCCDCD",
"M.	c #CBCCCC",
"N.	c #CACBCB",
"O.	c #C4C5C5",
"P.	c #B5B6B7",
"Q.	c #9E9F9F",
"R.	c #797A7A",
"S.	c #464746",
"T.	c #0F1110",
"U.	c #565655",
"V.	c #919191",
"W.	c #E0E0E0",
"X.	c #E3E4E4",
"Y.	c #FEFEFE",
"Z.	c #FEFFFF",
"`.	c #FDFEFE",
" +	c #FDFEFF",
".+	c #FBFBFC",
"++	c #F2F3F4",
"@+	c #EAEBEA",
"#+	c #E3E3E3",
"$+	c #DEDEDE",
"%+	c #DCDEDD",
"&+	c #D7D9D9",
"*+	c #C7C8C7",
"=+	c #ADAEAD",
"-+	c #858685",
";+	c #4E4E4E",
">+	c #141514",
",+	c #010302",
"'+	c #222323",
")+	c #5C5C5C",
"!+	c #989898",
"~+	c #C6C6C6",
"{+	c #E6E7E7",
"]+	c #FCFCFC",
"^+	c #D9DAD9",
"/+	c #C7C7C7",
"(+	c #B5B5B5",
"_+	c #B1B1B0",
":+	c #B0B1B1",
"<+	c #B3B3B3",
"[+	c #B2B3B3",
"}+	c #ACADAD",
"|+	c #9EA09F",
"1+	c #8B8C8C",
"2+	c #6C6C6C",
"3+	c #3E3F3E",
"4+	c #020502",
"5+	c #1C1D1D",
"6+	c #424242",
"7+	c #757575",
"8+	c #A8A8A8",
"9+	c #D3D3D3",
"0+	c #E3E4E5",
"a+	c #F8F9F8",
"b+	c #DEDFDF",
"c+	c #B8B9B8",
"d+	c #848383",
"e+	c #787877",
"f+	c #727271",
"g+	c #727372",
"h+	c #737473",
"i+	c #6E6E6D",
"j+	c #656665",
"k+	c #5A5B5A",
"l+	c #454545",
"m+	c #282928",
"n+	c #0A0C0B",
"o+	c #131514",
"p+	c #363636",
"q+	c #5C5D5C",
"r+	c #C0C0C0",
"s+	c #E5E6E5",
"t+	c #F7F8F7",
"u+	c #E7E8EA",
"v+	c #F5F5F5",
"w+	c #9A9B9A",
"x+	c #717171",
"y+	c #4B4B4A",
"z+	c #474746",
"A+	c #464645",
"B+	c #444443",
"C+	c #373838",
"D+	c #292A29",
"E+	c #121312",
"F+	c #050807",
"G+	c #1E1F1F",
"H+	c #747574",
"I+	c #D2D3D2",
"J+	c #F1F2F1",
"K+	c #FCFDFC",
"L+	c #EAEBEB",
"M+	c #F4F4F4",
"N+	c #888888",
"O+	c #575857",
"P+	c #373737",
"Q+	c #252524",
"R+	c #1D1D1C",
"S+	c #181918",
"T+	c #171816",
"U+	c #151716",
"V+	c #131513",
"W+	c #0E110F",
"X+	c #0A0D0A",
"Y+	c #242525",
"Z+	c #545555",
"`+	c #888989",
" @	c #B7B7B8",
".@	c #E2E2E1",
"+@	c #E9EAEB",
"@@	c #FFFEFF",
"#@	c #F3F4F3",
"$@	c #C4C5C4",
"%@	c #818181",
"&@	c #4F504F",
"*@	c #2E2E2E",
"=@	c #191A19",
"-@	c #0D0F0E",
";@	c #030605",
">@	c #010102",
",@	c #292A2A",
"'@	c #5D5E5E",
")@	c #909090",
"!@	c #BFC0C0",
"~@	c #E7E7E7",
"{@	c #FBFCFB",
"]@	c #FFFFFE",
"^@	c #C9C9C9",
"/@	c #8A8A89",
"(@	c #5B5B5B",
"_@	c #3D3D3C",
":@	c #282827",
"<@	c #1D1D1D",
"[@	c #161818",
"}@	c #121514",
"|@	c #0D1111",
"1@	c #070A09",
"2@	c #010101",
"3@	c #010202",
"4@	c #565757",
"5@	c #898989",
"6@	c #BABABA",
"7@	c #EDEEEE",
"8@	c #F8F8F7",
"9@	c #A3A3A3",
"0@	c #7E7D7D",
"a@	c #636362",
"b@	c #545352",
"c@	c #4D4D4D",
"d@	c #4C4C4D",
"e@	c #494949",
"f@	c #464646",
"g@	c #3F403E",
"h@	c #2E2D2D",
"i@	c #121413",
"j@	c #1E1F1E",
"k@	c #717271",
"l@	c #A3A4A4",
"m@	c #D0D1D1",
"n@	c #FBFCFC",
"o@	c #EBECEC",
"p@	c #B5B5B6",
"q@	c #ACACAC",
"r@	c #A8A8A9",
"s@	c #A7A7A8",
"t@	c #A3A3A4",
"u@	c #959796",
"v@	c #616262",
"w@	c #363737",
"x@	c #212221",
"y@	c #454746",
"z@	c #7C7C7C",
"A@	c #D6D6D7",
"B@	c #EFF0F0",
"C@	c #FCFDFD",
"D@	c #F7F7F7",
"E@	c #F2F3F3",
"F@	c #F0F1F1",
"G@	c #E8E9E9",
"H@	c #D6D7D7",
"I@	c #B8B8B8",
"J@	c #4F5050",
"K@	c #151615",
"L@	c #232423",
"M@	c #5C5C5B",
"N@	c #999A9A",
"O@	c #E7E8E8",
"P@	c #F7F9F9",
"Q@	c #949595",
"R@	c #555656",
"S@	c #1A1C1B",
"T@	c #939494",
"U@	c #E4E4E4",
"V@	c #FBFCFD",
"W@	c #BCBDBD",
"X@	c #8E8F8E",
"Y@	c #505151",
"Z@	c #141615",
"`@	c #191A1A",
" #	c #BFC0BF",
".#	c #F8F9F9",
"+#	c #D3D4D3",
"@#	c #D0D0CF",
"##	c #CFD0CF",
"$#	c #D2D2D0",
"%#	c #D2D3D1",
"&#	c #D1D2D1",
"*#	c #D3D4D2",
"=#	c #D1D2D0",
"-#	c #CECFCE",
";#	c #B7B8B7",
">#	c #A1A0A0",
",#	c #7A7B7A",
"'#	c #454646",
")#	c #121313",
"!#	c #595959",
"~#	c #EBEBEA",
"{#	c #D6D7D6",
"]#	c #B8B8B9",
"^#	c #9C9C9C",
"/#	c #8F8F8F",
"(#	c #8E8D8D",
"_#	c #8D8C8C",
":#	c #8B8B8B",
"<#	c #8B8B8A",
"[#	c #8A8B8A",
"}#	c #8A8A8A",
"|#	c #8B8A8A",
"1#	c #898A89",
"2#	c #808180",
"3#	c #707070",
"4#	c #565756",
"5#	c #323333",
"6#	c #0C0E0E",
"7#	c #171918",
"8#	c #939393",
"9#	c #E9E9E9",
"0#	c #E0E1E0",
"a#	c #929191",
"b#	c #6B6B6A",
"c#	c #5D5D5C",
"d#	c #5E5E5E",
"e#	c #5D5E5D",
"f#	c #5E5E5D",
"g#	c #5D5D5D",
"h#	c #50504F",
"i#	c #434443",
"j#	c #353635",
"k#	c #1F211F",
"l#	c #040705",
"m#	c #BFBFC0",
"n#	c #E9EAEA",
"o#	c #D8D8D8",
"p#	c #ACADAC",
"q#	c #6F6F6F",
"r#	c #3B3C3B",
"s#	c #212322",
"t#	c #222424",
"u#	c #232524",
"v#	c #232625",
"w#	c #242725",
"x#	c #232523",
"y#	c #1E201E",
"z#	c #141614",
"A#	c #080A09",
"B#	c #FFFDFF",
"C#	c #D4D4D3",
"D#	c #A0A1A1",
"E#	c #555555",
"F#	c #1B1C1B",
"G#	c #5A5958",
"H#	c #C1C1C1",
"I#	c #9F9F9F",
"J#	c #4E4F4E",
"K#	c #101211",
"L#	c #595756",
"M#	c #959595",
"N#	c #E6E6E6",
"O#	c #ABACAC",
"P#	c #616160",
"Q#	c #1C1E1D",
"R#	c #060807",
"S#	c #040706",
"T#	c #040604",
"U#	c #030504",
"V#	c #030403",
"W#	c #030503",
"X#	c #040605",
"Y#	c #040504",
"Z#	c #232322",
"`#	c #61605F",
" $	c #A0A0A0",
".$	c #EBEBEB",
"+$	c #E5E5E5",
"@$	c #9B9A99",
"#$	c #747372",
"$$	c #676666",
"%$	c #6A6A6A",
"&$	c #6A6A68",
"*$	c #696A67",
"=$	c #676765",
"-$	c #656764",
";$	c #656765",
">$	c #666765",
",$	c #676866",
"'$	c #666865",
")$	c #686966",
"!$	c #6A6B6A",
"~$	c #6B6C6B",
"{$	c #696A6A",
"]$	c #6C6D6C",
"^$	c #6D6D6C",
"/$	c #70706F",
"($	c #6E6F6E",
"_$	c #717070",
":$	c #807F7F",
"<$	c #BEBFBF",
"[$	c #D8D9D9",
"}$	c #FAFAFA",
"|$	c #E2E1E1",
"1$	c #E5E4E5",
"2$	c #E8E7E8",
"3$	c #EAE9EA",
"4$	c #EFEDED",
"5$	c #F0EEEF",
"6$	c #EEECED",
"7$	c #EBEAEB",
"8$	c #ECEBEC",
"9$	c #E5E4E4",
"0$	c #E4E4E5",
"a$	c #E6E5E6",
"b$	c #DFDEDF",
"c$	c #DBDBDC",
"d$	c #DDDDDE",
"e$	c #DEDEDF",
"f$	c #F6F7F7",
"g$	c #FDFEFD",
"                                                                ",
". + @ # $ % & * * = - = ; = ; > , > = ' ) ! ~ { ] ^ / ( _ :     ",
"< [ } | 1 2 3 4 3 5 6 6 7 8 9 0 a b c d e f g h i j k l m $ ~ n ",
"o p q r s t u v u v v v v v v v v v v v v v v v w x y z A B C D ",
"E F G H v v v v v v v v v v v v v v v v v v v v v v I J K L M N ",
"O P Q R S x w w w w w w w w w u u u u u v v v v v v T U V L W X ",
"Y Z z `  .....+.+.@.#.$.%.+.&.&.*.*.=.-.;.>.,.v v v '.).!.~.X C ",
"{.].^./.(.)._.:.<.(.[.}.|.1.1.2.1.1.3.4.5.6.7.x v v 8.9.0.a.b.c.",
"d.e.f.g.h.i.j.k.l.i.m.n.i.o.i.o.i.o.p.q.r.s.t.u.v v.w.<.V x.y.z.",
"A.B.{.C.D.E.F.G.H.H.I.J.K.L.K.L.M.N.O.P.Q.R.S.T.w v T U.V.a.W.X.",
"    Y.Z.Z.`.Z. +.+++@+#+W.b.$+%+% $ &+*+=+-+;+>+w ,+'+)+!+~+{+D ",
"                ]+& ^+/+m (+_+:+<+[+}+|+1+2+3+H 4+5+6+7+8+9+d.0+",
"                a+b+c+!+d+e+f+g+h+g+i+j+k+l+m+n+o+p+q+K r+s+t+u+",
"                v+D.w+x+<.y+z+S.z+A+B+3+C+D+E+F+G+l+H+8+I+J+K+L+",
"                M+[ N+O+P+Q+R+S+T+U+V+H W+X+,+,+Y+Z+`+ @.@a+Z.+@",
"@@              #@$@%@&@*@=@-@;@,.>@x u w w v ,.,@'@)@!@~@{@  L+",
"    ]@          v+^@/@(@_@:@<@'.[@8.w.}@|@1@2@3@ .4@5@6@#+A.  7@",
"                8@e.9@0@a@b@c@c@d@4.e@f@g@h@i@1@j@5.k@l@m@7@n@M+",
"                . o@9+r+p@q@r@8+8+s@t@u@%@v@w@i@T.x@y@z@:+A@B@C@",
"                  K+D@E@_ B@B.B@F@B@G@H@I@1+J@K@S F+L@M@N@~+O@`.",
"                      Z.  Z.        P@^ O.Q@R@I w w S@U.T@r+U@Z.",
"    . `.. `.                    `.V@7@b.W@X@Y@Z@w v `@_.T@ #< Z.",
".#& {.+#@###G.F.$#%#%#&#*#=#*#&#=#-#*+;#>#,#'#)#w v `@!#g.r+O@Z.",
"~#{#]#^#)@/#(#_#j.:#<#[#}#}#}#}#|#}#1#2#3#4#5#6#w v 7#U 8#r+9#  ",
"0#r+a#b#c#d#e#f#f#c#d#f#d#g#f#c#)+(@:.h#i#j#k#l#v v I !#8#m#n#  ",
"o#p#q#r#s#t#u#v#@.@.@.w#%.&.%.&.*.%.%.x#y#z#A#u v v I _.T@!@n#B#",
"C#D#E#F#x v v v v v v v v v v.w w w w v v v v v v v U+G#g.H#G@  ",
"9+I#J#K#v v v v v v v v v v v v v v v v v v v v v v S+L#M#r+N#  ",
"o O#P#Q#R#S#T#U#U#V#W#V#V#,.V#V#V#V#X#Y#U#Y#U#V#V#R#Z#`# $/+.$  ",
"+$/+@$#$$$%$&$*$=$-$;$>$,$'$>$)$,$*$!$~${$]$^$/$($_$:$I#<$[$M+  ",
"}$_ N#U@|$1$2$2$3$4$5$6$5$5$5$7$8$.$9$0$a$y.z.b$c$d$e$C 7@f$g$  ",
"                                      B#                        "};
