/* XPM */
static char * 6_xpm[] = {
"32 32 443 2",
"  	c #FFFFFF",
". 	c #F6F7F8",
"+ 	c #EDEDED",
"@ 	c #E2E3E2",
"# 	c #DDDEDD",
"$ 	c #EAEBEA",
"% 	c #EBECEC",
"& 	c #EAEAEA",
"* 	c #F6F7F9",
"= 	c #F6F8FA",
"- 	c #F6F7FA",
"; 	c #F7F8FA",
"> 	c #F5F6F8",
", 	c #F4F5F8",
"' 	c #F3F4F6",
") 	c #F4F4F6",
"! 	c #F4F5F6",
"~ 	c #F3F4F5",
"{ 	c #F0F1F3",
"] 	c #F1F2F3",
"^ 	c #EAEBEB",
"/ 	c #FCFDFD",
"( 	c #F2F3F3",
"_ 	c #C4C6C5",
": 	c #A7A8A6",
"< 	c #919190",
"[ 	c #787876",
"} 	c #656662",
"| 	c #646661",
"1 	c #575C55",
"2 	c #585C56",
"3 	c #575C56",
"4 	c #5E625C",
"5 	c #585D56",
"6 	c #5A5F59",
"7 	c #595E58",
"8 	c #5D625D",
"9 	c #565C56",
"0 	c #595F58",
"a 	c #5D625C",
"b 	c #595E57",
"c 	c #5C605B",
"d 	c #60645F",
"e 	c #5A5E58",
"f 	c #5E625D",
"g 	c #50544E",
"h 	c #686D6A",
"i 	c #A1A2A1",
"j 	c #E3E5E6",
"k 	c #F8FAFA",
"l 	c #E2E3E4",
"m 	c #A6A7A6",
"n 	c #7B7B7A",
"o 	c #494948",
"p 	c #1F201E",
"q 	c #020503",
"r 	c #000000",
"s 	c #000101",
"t 	c #000100",
"u 	c #000201",
"v 	c #050604",
"w 	c #1B1B19",
"x 	c #757674",
"y 	c #CECECF",
"z 	c #DBDDDD",
"A 	c #9F9F9E",
"B 	c #6C6C6B",
"C 	c #3D3D3C",
"D 	c #161716",
"E 	c #000002",
"F 	c #0E0F0E",
"G 	c #676766",
"H 	c #C5C6C6",
"I 	c #EFF0F0",
"J 	c #DADADB",
"K 	c #9E9E9D",
"L 	c #6C6D6C",
"M 	c #3B3B3B",
"N 	c #151515",
"O 	c #151615",
"P 	c #C6C6C7",
"Q 	c #DADBDB",
"R 	c #9C9C9C",
"S 	c #6A6B6B",
"T 	c #3A3A3A",
"U 	c #131413",
"V 	c #010202",
"W 	c #101212",
"X 	c #1B1D1C",
"Y 	c #232424",
"Z 	c #272727",
"` 	c #262727",
" .	c #252727",
"..	c #252626",
"+.	c #252726",
"@.	c #242525",
"#.	c #202222",
"$.	c #212222",
"%.	c #373737",
"&.	c #7A7B7A",
"*.	c #CFD0D0",
"=.	c #F3F4F4",
"-.	c #9B9B9B",
";.	c #6B6C6B",
">.	c #383838",
",.	c #121413",
"'.	c #080B0B",
").	c #282827",
"!.	c #414141",
"~.	c #4E4E4E",
"{.	c #525252",
"].	c #535352",
"^.	c #535353",
"/.	c #535252",
"(.	c #545453",
"_.	c #555554",
":.	c #565655",
"<.	c #545454",
"[.	c #616161",
"}.	c #939393",
"|.	c #D8D8D8",
"1.	c #F7F7F7",
"2.	c #DBDCDC",
"3.	c #9B9C9B",
"4.	c #121313",
"5.	c #0E1010",
"6.	c #3F403F",
"7.	c #686869",
"8.	c #7E7F7F",
"9.	c #878687",
"0.	c #878788",
"a.	c #89898A",
"b.	c #8A8A8B",
"c.	c #89888A",
"d.	c #888889",
"e.	c #8B8B8B",
"f.	c #8A898A",
"g.	c #959595",
"h.	c #B4B4B4",
"i.	c #E8E8E8",
"j.	c #DCDDDD",
"k.	c #6C6C6C",
"l.	c #555555",
"m.	c #959695",
"n.	c #BDBDBD",
"o.	c #C7C7C8",
"p.	c #CBCBCB",
"q.	c #CCCCCD",
"r.	c #CDCDCE",
"s.	c #CDCECE",
"t.	c #CECFCF",
"u.	c #CECECE",
"v.	c #CDCDCD",
"w.	c #CECFCE",
"x.	c #D5D6D6",
"y.	c #E2E3E3",
"z.	c #DCDDDE",
"A.	c #393939",
"B.	c #131414",
"C.	c #151616",
"D.	c #5E5E5E",
"E.	c #A9AAA9",
"F.	c #CED0CF",
"G.	c #DDDEDE",
"H.	c #DFE0E0",
"I.	c #E1E2E1",
"J.	c #E2E2E2",
"K.	c #E0E1E1",
"L.	c #E3E3E3",
"M.	c #E1E2E2",
"N.	c #E3E4E3",
"O.	c #E3E4E4",
"P.	c #E3E5E4",
"Q.	c #E1E3E3",
"R.	c #E7E8E8",
"S.	c #EEEEEF",
"T.	c #FBFCFC",
"U.	c #DCDCDD",
"V.	c #373837",
"W.	c #4E4F4F",
"X.	c #838484",
"Y.	c #A1A3A2",
"Z.	c #AEAFAF",
"`.	c #B1B2B2",
" +	c #B2B4B3",
".+	c #B2B4B4",
"++	c #B4B5B5",
"@+	c #B3B5B4",
"#+	c #B3B4B3",
"$+	c #B3B4B4",
"%+	c #B2B3B3",
"&+	c #B1B3B2",
"*+	c #BEBFBF",
"=+	c #D3D4D4",
"-+	c #F4F5F4",
";+	c #DBDBDC",
">+	c #6B6C6C",
",+	c #373838",
"'+	c #090B0B",
")+	c #333433",
"!+	c #575757",
"~+	c #6A6B6A",
"{+	c #707170",
"]+	c #717271",
"^+	c #737473",
"/+	c #747473",
"(+	c #727372",
"_+	c #737373",
":+	c #727271",
"<+	c #70706F",
"[+	c #7C7D7C",
"}+	c #A1A3A3",
"|+	c #ECECEC",
"1+	c #020303",
"2+	c #353635",
"3+	c #454544",
"4+	c #454645",
"5+	c #474747",
"6+	c #474847",
"7+	c #484847",
"8+	c #484948",
"9+	c #464746",
"0+	c #464645",
"a+	c #434443",
"b+	c #848584",
"c+	c #E0E0E0",
"d+	c #DADBDC",
"e+	c #383938",
"f+	c #060807",
"g+	c #101211",
"h+	c #121412",
"i+	c #111412",
"j+	c #0E110F",
"k+	c #101210",
"l+	c #0F1210",
"m+	c #101310",
"n+	c #0F110F",
"o+	c #101311",
"p+	c #0E100F",
"q+	c #0E100E",
"r+	c #2A2B29",
"s+	c #6F706F",
"t+	c #D7D7D6",
"u+	c #D9DADA",
"v+	c #9A9B9A",
"w+	c #111111",
"x+	c #686968",
"y+	c #D3D4D3",
"z+	c #0C0D0C",
"A+	c #626363",
"B+	c #D4D5D4",
"C+	c #0E1110",
"D+	c #1F2222",
"E+	c #252828",
"F+	c #262828",
"G+	c #242626",
"H+	c #232525",
"I+	c #212424",
"J+	c #212423",
"K+	c #212323",
"L+	c #181A1A",
"M+	c #0D0F0F",
"N+	c #040605",
"O+	c #010101",
"P+	c #0E0E0E",
"Q+	c #636564",
"R+	c #9B9B9A",
"S+	c #6B6B6B",
"T+	c #0E1112",
"U+	c #424242",
"V+	c #717172",
"W+	c #919191",
"X+	c #939394",
"Y+	c #99999A",
"Z+	c #99989A",
"`+	c #989899",
" @	c #9B9B9C",
".@	c #9A9A9C",
"+@	c #969798",
"@@	c #838384",
"#@	c #5F5F60",
"$@	c #393A3A",
"%@	c #1F2020",
"&@	c #0A0B0B",
"*@	c #101010",
"=@	c #141515",
"-@	c #1A1B1B",
";@	c #636363",
">@	c #ADAEAE",
",@	c #D7D8D8",
"'@	c #E5E6E6",
")@	c #EEF0EF",
"!@	c #EFF1F1",
"~@	c #F0F1F1",
"{@	c #EEEFEF",
"]@	c #C8C8C8",
"^@	c #8F8F8F",
"/@	c #565757",
"(@	c #303131",
"_@	c #111312",
":@	c #646565",
"<@	c #D2D3D2",
"[@	c #1C1E1E",
"}@	c #C1C3C3",
"|@	c #EEF2F1",
"1@	c #F9FBFB",
"2@	c #D6D7D7",
"3@	c #9D9D9D",
"4@	c #353736",
"5@	c #0F0F0F",
"6@	c #616262",
"7@	c #D3D5D3",
"8@	c #D8D9D9",
"9@	c #1C1D1C",
"0@	c #696968",
"a@	c #B6B7B7",
"b@	c #E2E4E3",
"c@	c #F6F7F6",
"d@	c #FDFEFE",
"e@	c #FEFEFE",
"f@	c #FEFFFF",
"g@	c #CFCFCF",
"h@	c #979796",
"i@	c #5E5F5F",
"j@	c #323333",
"k@	c #636463",
"l@	c #D8D9DA",
"m@	c #393A39",
"n@	c #151716",
"o@	c #575755",
"p@	c #949595",
"q@	c #B5B6B6",
"r@	c #C3C3C3",
"s@	c #C9CAC9",
"t@	c #CED0CE",
"u@	c #D0D1CF",
"v@	c #CFD0CF",
"w@	c #D1D2D1",
"x@	c #D0D2D1",
"y@	c #CACACA",
"z@	c #ADAEAD",
"A@	c #7E7E7E",
"B@	c #4D4D4E",
"C@	c #282929",
"D@	c #0D0E0D",
"E@	c #626463",
"F@	c #404040",
"G@	c #818281",
"H@	c #888888",
"I@	c #898A8A",
"J@	c #8B8C8B",
"K@	c #8B8C8C",
"L@	c #8C8C8C",
"M@	c #888988",
"N@	c #787978",
"O@	c #353636",
"P@	c #1C1D1D",
"Q@	c #070908",
"R@	c #0F1011",
"S@	c #646665",
"T@	c #9C9D9C",
"U@	c #060908",
"V@	c #292A29",
"W@	c #515151",
"X@	c #585858",
"Y@	c #595A59",
"Z@	c #5B5B5B",
"`@	c #5B5C5B",
" #	c #5A5A5A",
".#	c #5A5B5A",
"+#	c #575857",
"@#	c #4B4B4A",
"##	c #363736",
"$#	c #222323",
"%#	c #020302",
"&#	c #0F0F0E",
"*#	c #6D6D6D",
"=#	c #3A3B3A",
"-#	c #010201",
";#	c #0F1110",
">#	c #272828",
",#	c #282928",
"'#	c #272928",
")#	c #1F201F",
"!#	c #181918",
"~#	c #0F1010",
"{#	c #656766",
"]#	c #D2D3D1",
"^#	c #9FA09F",
"/#	c #676968",
"(#	c #FEFEFF",
"_#	c #3B3C3C",
":#	c #161717",
"<#	c #020000",
"[#	c #131313",
"}#	c #686867",
"|#	c #A7A8A8",
"1#	c #777877",
"2#	c #494A49",
"3#	c #090909",
"4#	c #070808",
"5#	c #080A09",
"6#	c #080909",
"7#	c #090A09",
"8#	c #080908",
"9#	c #0A0B0A",
"0#	c #0D0D0D",
"a#	c #0C0D0D",
"b#	c #0C0C0C",
"c#	c #0B0C0C",
"d#	c #090A0A",
"e#	c #1E1F1E",
"f#	c #6D6E6D",
"g#	c #D6D8D7",
"h#	c #EFF0EF",
"i#	c #C6C6C6",
"j#	c #ABAAA9",
"k#	c #908F8E",
"l#	c #787776",
"m#	c #6E6D6C",
"n#	c #6A6969",
"o#	c #696A69",
"p#	c #6A6A69",
"q#	c #696A68",
"r#	c #696969",
"s#	c #696869",
"t#	c #6A6A6A",
"u#	c #656464",
"v#	c #717171",
"w#	c #A2A3A2",
"x#	c #EDEEEE",
"y#	c #F5F5F5",
"z#	c #DCDCDC",
"A#	c #DDDCDD",
"B#	c #DDDDDD",
"C#	c #E5E4E5",
"D#	c #E5E3E5",
"E#	c #E8E7E8",
"F#	c #E6E5E6",
"G#	c #E4E4E4",
"H#	c #E5E5E5",
"I#	c #DFDFDE",
"J#	c #F1F1F2",
"                                                                ",
"    . + @ # $ % & * = - ; - ; > , > > ' ' ) ! ~ { ] ] ^ % ~ /   ",
"  ( _ : < [ } | | 1 2 3 4 5 6 7 8 9 6 0 a b c 0 d e f g h i j k ",
"  l m n o p q r s r r r r r r r r r s t s s s s s s u v w x y ( ",
"  z A B C D t r r r r r r r r r r r r r E r r r r r r r F G H I ",
"  J K L M N t r r r t t t t t s t t t t t t t t t t t u O B P I ",
"  Q R S T U r r V W X Y Z ` `  .` ` ....+.....@.@.Y #.$.%.&.*.=.",
"  Q -.;.>.,.r r '.).!.~.{.].^./.].^.^.].^.].^.(._.:.<.].[.}.|.1.",
"  2.3.;.>.4.t r 5.6.7.8.9.0.a.a.b.c.a.a.b.d.a.a.e.a.b.f.g.h.i./ ",
"  j.-.k.>.4.r r O l.m.n.o.p.q.r.s.t.y u.u.y y t.r.v.v.w.x.y.1.  ",
"  z.3.;.A.B.r r C.D.E.F.G.H.I.H.J.K.J.H.L.M.N.K.O.M.P.Q.R.S.T.  ",
"  U.3.L V.B.t r 4.W.X.Y.Z.`. +.+++@+#+.+++$+ +%+%+&+%+@+*+=+-+  ",
"  ;+3.>+,+4.r r '+)+!+~+{+]+^+^+/+(+/+_+/+_+^+(+/+_+:+<+[+}+|+  ",
"  ;+3.L V.4.r r 1+X 2+!.3+4+5+6+7+7+8+7+8+6+7+9+5+9+0+a+{.b+c+  ",
"  d+3.>+e+B.t r r f+g+h+h+g+i+j+k+l+m+n+o+l+k+p+q+j+n+n+r+s+t+  ",
"  u+v+L %.B.t r r r r r r r r r r r r r r r r r r r r r w+x+y+  ",
"  u+-.>+>.4.r r r r r t r r r r r r r r r r r r r r r r z+A+B+  ",
"  J 3.L >.B.t r V C+D+E+F+G+H+I+E+E+G+J+H+K+L+M+N+O+r r P+Q+y+  ",
"  Q R+S+A.N t r T+U+V+0.W+X+Y+Y+Z+`+ @.@+@@@#@$@%@&@t r *@A+y+  ",
"  u+v+L >.=@t r -@;@>@,@'@% )@I I !@~@{@'@]@^@/@(@_@O+r *@:@<@  ",
"  u+-.>+e+=@t r [@>+}@|@                1@2@3@A+4@B.O+r 5@6@7@  ",
"  8@3.L >.=@t r 9@0@a@b@c@d@    e@f@e@d@( g@h@i@j@_@O+r *@k@B+  ",
"  l@3.;.m@N t r n@o@p@q@r@s@w.t@u@v@w@x@y@z@A@B@C@D@s r *@E@y+  ",
"  8@3.L >.=@t r 5.F@>+G@H@I@e.J@e.e.K@L@M@N@/@O@P@Q@s r R@S@<@  ",
"  2@T@>+m@B.r r U@V@U+W@X@Y@Z@`@Z@ #`@.#+#@###$#g+%#t r &#k@y+  ",
"  2@T@*#=#B.r r -#;#X Y >#>#,#C@C@C@,#'#` )#!#p+f+s r r ~#{#]#  ",
"  2@^#*#C =@t r r r s s -#s O+s s s s s s -#O+s t r r r 5@/#x@  ",
"(#2@^#B _#:#t r r r r r r r r r r r r r r r r r r r r <#[#}#u@  ",
"  j.|#1#2#$.F 3#4#4#5#6#7#8#7#6#9#&@P+0#a#b#0#c#&@&@d#7#e#f#g#  ",
"  h#i#j#k#l#m#B n#~+o#~+p#q#x+~+o#q#x+o#x+o#r#o#s#t#t#u#v#w#x#  ",
"  f@y#& @ # z#A#B#C#C#D#E#E#E#F#E#E#F#G#F#H#C#L.C#G#J.I#G#J#d@  ",
"                                                                "};
