/* XPM */
static char * 7_xpm[] = {
"32 32 387 2",
"  	c #FFFFFF",
". 	c #FDFEFD",
"+ 	c #F6F7F6",
"@ 	c #ECECEC",
"# 	c #E3E3E2",
"$ 	c #E4E5E3",
"% 	c #E4E5E4",
"& 	c #EDEEED",
"* 	c #F3F3F3",
"= 	c #F5F5F5",
"- 	c #FAFAFB",
"; 	c #FCFCFD",
"> 	c #FAFAFC",
", 	c #FDFCFE",
"' 	c #FCFBFD",
") 	c #FDFDFE",
"! 	c #F9F9FB",
"~ 	c #F8F8FA",
"{ 	c #F6F6F8",
"] 	c #F7F7F9",
"^ 	c #F4F4F5",
"/ 	c #F5F6F7",
"( 	c #F2F3F4",
"_ 	c #EBECEC",
": 	c #ECEDEC",
"< 	c #EBECEB",
"[ 	c #E7E7E6",
"} 	c #EFF0EF",
"| 	c #FAFBFB",
"1 	c #F0F1F1",
"2 	c #D5D6D6",
"3 	c #ABACAB",
"4 	c #838583",
"5 	c #6F716E",
"6 	c #646864",
"7 	c #5D615C",
"8 	c #585D58",
"9 	c #595E59",
"0 	c #515851",
"a 	c #525954",
"b 	c #515953",
"c 	c #565C58",
"d 	c #515853",
"e 	c #545A56",
"f 	c #555B55",
"g 	c #5C605B",
"h 	c #565C55",
"i 	c #575C56",
"j 	c #585D57",
"k 	c #5D615B",
"l 	c #595C57",
"m 	c #5D605B",
"n 	c #5F625C",
"o 	c #636460",
"p 	c #626360",
"q 	c #6C6D6A",
"r 	c #7F807F",
"s 	c #A5A6A5",
"t 	c #CDCECE",
"u 	c #F8FBFB",
"v 	c #E7E8E8",
"w 	c #C0C1C1",
"x 	c #808080",
"y 	c #3B3D3B",
"z 	c #080B09",
"A 	c #020403",
"B 	c #010201",
"C 	c #000101",
"D 	c #010101",
"E 	c #000000",
"F 	c #000100",
"G 	c #070808",
"H 	c #464545",
"I 	c #B7B7B7",
"J 	c #DDDEDE",
"K 	c #ECEDED",
"L 	c #E4E5E5",
"M 	c #BABBBB",
"N 	c #777777",
"O 	c #202121",
"P 	c #343332",
"Q 	c #767676",
"R 	c #B2B3B3",
"S 	c #DADADA",
"T 	c #E5E5E5",
"U 	c #BEBFBF",
"V 	c #7D7D7C",
"W 	c #2A2B2A",
"X 	c #000201",
"Y 	c #000001",
"Z 	c #010303",
"` 	c #3C3B3A",
" .	c #787878",
"..	c #B3B4B4",
"+.	c #D9D9D9",
"@.	c #E7E8E7",
"#.	c #E9E9E9",
"$.	c #C6C7C6",
"%.	c #8B8B8A",
"&.	c #484848",
"*.	c #232323",
"=.	c #222222",
"-.	c #242424",
";.	c #232424",
">.	c #252626",
",.	c #242525",
"'.	c #232525",
").	c #252624",
"!.	c #252727",
"~.	c #262827",
"{.	c #282929",
"].	c #272928",
"^.	c #1D1F1F",
"/.	c #191A1B",
"(.	c #111313",
"_.	c #070909",
":.	c #010202",
"<.	c #3B3A39",
"[.	c #787879",
"}.	c #B3B3B3",
"|.	c #DADBDB",
"1.	c #EDEDED",
"2.	c #D1D1D1",
"3.	c #A1A1A1",
"4.	c #6F6F6F",
"5.	c #555554",
"6.	c #545554",
"7.	c #555655",
"8.	c #555555",
"9.	c #545454",
"0.	c #4E4E4E",
"a.	c #434444",
"b.	c #393A3A",
"c.	c #262726",
"d.	c #101212",
"e.	c #383837",
"f.	c #B2B2B3",
"g.	c #D9D9DA",
"h.	c #E8E9E8",
"i.	c #F6F7F7",
"j.	c #E1E1E1",
"k.	c #C0C0C0",
"l.	c #A1A0A0",
"m.	c #908F8F",
"n.	c #8B8B8B",
"o.	c #8C8B8B",
"p.	c #8A8A8A",
"q.	c #89898A",
"r.	c #898A8A",
"s.	c #8A8A8B",
"t.	c #8B8B8C",
"u.	c #8A898A",
"v.	c #888888",
"w.	c #7C7C7D",
"x.	c #6A6A6A",
"y.	c #505252",
"z.	c #343535",
"A.	c #181A1A",
"B.	c #797979",
"C.	c #DADADB",
"D.	c #E7E7E7",
"E.	c #FDFEFE",
"F.	c #F6F6F6",
"G.	c #E9EAE9",
"H.	c #DBDCDB",
"I.	c #D6D6D6",
"J.	c #D5D5D5",
"K.	c #D7D8D7",
"L.	c #D7D7D7",
"M.	c #D5D6D5",
"N.	c #D2D3D3",
"O.	c #D2D3D2",
"P.	c #D1D1D0",
"Q.	c #CDCDCD",
"R.	c #C9C9C9",
"S.	c #C7C7C8",
"T.	c #BEBEBF",
"U.	c #AAABAB",
"V.	c #8A8B8B",
"W.	c #646464",
"X.	c #3E3F3F",
"Y.	c #1D1F1E",
"Z.	c #020603",
"`.	c #3B3B3A",
" +	c #7C7C7C",
".+	c #B2B2B2",
"++	c #E6E7E6",
"@+	c #FEFFFF",
"#+	c #FEFEFE",
"$+	c #F8F8F9",
"%+	c #E4E4E4",
"&+	c #CFCFD0",
"*+	c #B0B1B1",
"=+	c #5D5E5E",
"-+	c #383938",
";+	c #1B1C1B",
">+	c #121414",
",+	c #474746",
"'+	c #848484",
")+	c #B8B8B8",
"!+	c #DDDDDE",
"~+	c #E8E8E9",
"{+	c #F3F4F3",
"]+	c #AFAFB0",
"^+	c #868786",
"/+	c #5F5F5F",
"(+	c #383A39",
"_+	c #1E1F1E",
":+	c #0A0C0B",
"<+	c #2E2F2F",
"[+	c #5E5E5D",
"}+	c #969696",
"|+	c #C7C7C7",
"1+	c #E5E4E5",
"2+	c #F4F5F5",
"3+	c #DBDCDC",
"4+	c #AEAFAF",
"5+	c #515150",
"6+	c #131615",
"7+	c #010302",
"8+	c #171919",
"9+	c #393939",
"0+	c #585857",
"a+	c #858585",
"b+	c #B5B6B6",
"c+	c #EEEEEF",
"d+	c #F1F2F2",
"e+	c #F4F5F4",
"f+	c #CFD0D0",
"g+	c #A4A4A4",
"h+	c #747574",
"i+	c #484948",
"j+	c #2A2C2B",
"k+	c #121413",
"l+	c #030403",
"m+	c #1D1E1E",
"n+	c #3E3E3D",
"o+	c #636362",
"p+	c #8D8D8D",
"q+	c #B6B6B6",
"r+	c #D4D3D4",
"s+	c #EAE9E9",
"t+	c #F7F8F8",
"u+	c #FEFEFF",
"v+	c #F5F7F7",
"w+	c #D9DADA",
"x+	c #969797",
"y+	c #606160",
"z+	c #3C3D3C",
"A+	c #222322",
"B+	c #0E100E",
"C+	c #030504",
"D+	c #202221",
"E+	c #40403F",
"F+	c #666666",
"G+	c #959596",
"H+	c #C1C1C1",
"I+	c #DEDEDE",
"J+	c #EEEEEE",
"K+	c #F8F8F8",
"L+	c #ECECED",
"M+	c #A4A5A4",
"N+	c #666766",
"O+	c #313332",
"P+	c #151716",
"Q+	c #3F3F3E",
"R+	c #6B6B6B",
"S+	c #9C9B9C",
"T+	c #C6C5C5",
"U+	c #FDFDFD",
"V+	c #C8C9C9",
"W+	c #8D8E8E",
"X+	c #020402",
"Y+	c #1F2121",
"Z+	c #A4A4A5",
"`+	c #D0D2D0",
" @	c #F7F7F7",
".@	c #B9BAB9",
"+@	c #616262",
"@@	c #313232",
"#@	c #191A18",
"$@	c #040604",
"%@	c #1E1E1E",
"&@	c #3D3E3D",
"*@	c #676767",
"=@	c #9D9E9E",
"-@	c #EFEFEF",
";@	c #FBFCFB",
">@	c #FFFDFF",
",@	c #F8F9F9",
"'@	c #B6B7B6",
")@	c #5B5B5B",
"!@	c #292928",
"~@	c #111210",
"{@	c #010301",
"]@	c #161717",
"^@	c #393938",
"/@	c #6E6F6E",
"(@	c #A5A5A5",
"_@	c #D3D3D3",
":@	c #F2F3F3",
"<@	c #5D5D5D",
"[@	c #090B0A",
"}@	c #202120",
"|@	c #4F4F4E",
"1@	c #D8D8D8",
"2@	c #F4F4F4",
"3@	c #B5B5B5",
"4@	c #5A5B5B",
"5@	c #101112",
"6@	c #010402",
"7@	c #0B0C0B",
"8@	c #232322",
"9@	c #525352",
"0@	c #9F9F9F",
"a@	c #FCFDFD",
"b@	c #FBFCFD",
"c@	c #F9FAFA",
"d@	c #B5B6B5",
"e@	c #2A2A29",
"f@	c #0E0F0D",
"g@	c #010503",
"h@	c #0C0D0B",
"i@	c #535353",
"j@	c #9C9C9C",
"k@	c #E8E9E9",
"l@	c #2B2B2A",
"m@	c #0D0E0D",
"n@	c #0C0D0C",
"o@	c #242322",
"p@	c #545456",
"q@	c #9D9E9D",
"r@	c #292A29",
"s@	c #010504",
"t@	c #E8EAE9",
"u@	c #10110F",
"v@	c #030605",
"w@	c #242423",
"x@	c #9C9D9C",
"y@	c #5C5D5D",
"z@	c #2C2C2B",
"A@	c #111311",
"B@	c #040806",
"C@	c #262524",
"D@	c #9D9D9D",
"E@	c #EAEBEA",
"F@	c #F8F9FA",
"G@	c #B6B7B7",
"H@	c #2D2D2C",
"I@	c #121311",
"J@	c #050906",
"K@	c #262625",
"L@	c #9E9E9E",
"M@	c #EAECEB",
"N@	c #FFFFFD",
"O@	c #F7F8F7",
"P@	c #60605F",
"Q@	c #282726",
"R@	c #0F100F",
"S@	c #252524",
"T@	c #545352",
"U@	c #9D9D9C",
"V@	c #BCBCBB",
"W@	c #696969",
"X@	c #2E2E2E",
"Y@	c #1D1D1D",
"Z@	c #181919",
"`@	c #1C1C1C",
" #	c #303030",
".#	c #5F5E5D",
"+#	c #AAAAA9",
"@#	c #FCFCFC",
"##	c #9E9D9C",
"$#	c #828180",
"%#	c #7B7A79",
"&#	c #767574",
"*#	c #787676",
"=#	c #807F7F",
"-#	c #9C9B9A",
";#	c #F5F6F6",
">#	c #F8F9F8",
",#	c #DBDBDB",
"'#	c #D6D7D7",
")#	c #D4D4D4",
"!#	c #D8D9D9",
"~#	c #E2E3E3",
"{#	c #FEFFFE",
"                                                                ",
". + @ # $ % & * = - ; > , ' ) - ! ~ - { ] ^ / ( _ : < [ } |     ",
"1 2 3 4 5 6 7 8 9 0 a b c d e f g h i j k l m n o p q r s t _ u ",
"v w x y z A B C D C C E F E C E F E C E C E E E E E G H x I J K ",
"L M N O F E E E E E E E E E E E E E E E E E E E E E E P Q R S v ",
"T U V W D C F C F C F C F F F C C C X C F Y F E E E Z `  ...+.@.",
"#.$.%.&.*.=.-.;.>.,.,.'.>.).!.~.{.{.].,.^./.(._.F E :.<.[.}.|.#.",
"1.2.3.4.5.5.5.5.6.5.5.5.5.7.8.6.9.8.9.0.a.b.c.d.C E F e.[.f.g.h.",
"i.j.k.l.m.n.o.p.p.q.r.p.s.s.t.t.n.u.v.w.x.y.z.A.:.E E e.B.f.C.D.",
"E.F.G.H.I.J.J.I.I.K.L.M.N.O.P.Q.R.S.T.U.V.W.X.Y.B E Z.`. +.+g.++",
"    @+E.  @+            @+#+E.$+1 %+&+*+n.=+-+;+C F >+,+'+)+!+~+",
"                              @+{+S ]+^+/+(+_+:+B (.<+[+}+|+1+@ ",
"                              2+3+4+ .5+<+6+A 7+8+9+0+a+b+g.c+d+",
"                            e+f+g+h+i+j+k+B l+m+n+o+p+q+r+s++ t+",
"                        u+v+w+x+y+z+A+B+D C+D+E+F+G+H+I+J+K+E.E.",
"                      u+L+O.M+N+O+P+A F C+=.Q+R+S+T+%+= U+      ",
"                      | V+W+=+-+P+X+F C+Y+n+x.Z+`+#. @@+        ",
"                      t+.@+@@@#@$@C l+%@&@*@=@2.-@;@          U+",
"                  >@  ,@'@)@!@~@{@A ]@^@/@(@_@:@E.            ; ",
"@+                    ,@q+<@!@~@X+[@}@|@x+1@2@E.              | ",
"                      ,@3@4@W 5@6@7@8@9@0@%+a@                b@",
"                      c@d@)@e@f@g@h@8@i@j@k@                  #+",
"                      - q+4@l@m@g@n@o@p@q@G.                    ",
"                      c@d@)@r@f@s@n@8@6.j@t@                  u+",
"                      ,@d@4@l@u@v@m@w@6.x@G.                  u+",
"                      ,@b+y@z@A@B@B+C@7.D@E@                  u+",
"                      F@G@/+H@I@J@u@K@7.L@M@                    ",
"          N@          O@q+P@Q@f@[@R@S@T@U@:                   #+",
"                      ,@V@W@X@Y@Z@`@ #.#+#}                   u+",
"                      @#I.##$#%#&#*#=#-#|+;#                    ",
"                        >#D.,#'#)#'#!#~#1 E.                    ",
"                u+          @+{#{#u+>@                          "};
