/* XPM */
static char * Back _3_xpm[] = {
"32 32 6 1",
" 	c None",
".	c #780BF7",
"+	c #D840FB",
"@	c #04193F",
"#	c #F489F6",
"$	c #000000",
"                                ",
"                                ",
"                                ",
"          @@       @@           ",
"         @##@     @..@          ",
"        @####@   @....@         ",
"        @#####@@@.....@         ",
"         @###+++++...@          ",
"         @+#####++++.@          ",
"        @+#########++.@         ",
"        @###########+.@         ",
"       @+###########++.@        ",
"       @############++.@        ",
"       @############++.@        ",
"       @############++.@        ",
"       @############++.@        ",
"       @+###########++.@        ",
"      @@@###########++@         ",
"     @++@+#########++.@@        ",
"     @++++#######++..@..@       ",
"     @++++########+.....@       ",
"      @@@@########+.....@       ",
"         @########+.@@@@        ",
"         @########+.@           ",
"         @########+.@           ",
"         @########+.@           ",
"         @########+.@           ",
"         @#####++++.@           ",
"         @###+@@+++.@           ",
"         @###@  @++.@           ",
"         @###@  @++.@           ",
"         @@@@    @@@@           "};
